%TF.GenerationSoftware,KiCad,Pcbnew,9.0.8*%
%TF.CreationDate,2026-03-16T17:38:59-07:00*%
%TF.ProjectId,tdcs,74646373-2e6b-4696-9361-645f70636258,rev?*%
%TF.SameCoordinates,Original*%
%TF.FileFunction,Legend,Top*%
%TF.FilePolarity,Positive*%
%FSLAX46Y46*%
G04 Gerber Fmt 4.6, Leading zero omitted, Abs format (unit mm)*
G04 Created by KiCad (PCBNEW 9.0.8) date 2026-03-16 17:38:59*
%MOMM*%
%LPD*%
G01*
G04 APERTURE LIST*
G04 Aperture macros list*
%AMRoundRect*
0 Rectangle with rounded corners*
0 $1 Rounding radius*
0 $2 $3 $4 $5 $6 $7 $8 $9 X,Y pos of 4 corners*
0 Add a 4 corners polygon primitive as box body*
4,1,4,$2,$3,$4,$5,$6,$7,$8,$9,$2,$3,0*
0 Add four circle primitives for the rounded corners*
1,1,$1+$1,$2,$3*
1,1,$1+$1,$4,$5*
1,1,$1+$1,$6,$7*
1,1,$1+$1,$8,$9*
0 Add four rect primitives between the rounded corners*
20,1,$1+$1,$2,$3,$4,$5,0*
20,1,$1+$1,$4,$5,$6,$7,0*
20,1,$1+$1,$6,$7,$8,$9,0*
20,1,$1+$1,$8,$9,$2,$3,0*%
G04 Aperture macros list end*
%ADD10C,0.150000*%
%ADD11C,0.120000*%
%ADD12C,1.600000*%
%ADD13R,1.800000X1.800000*%
%ADD14C,1.800000*%
%ADD15R,1.700000X1.700000*%
%ADD16C,1.700000*%
%ADD17RoundRect,0.250000X-0.550000X-0.550000X0.550000X-0.550000X0.550000X0.550000X-0.550000X0.550000X0*%
%ADD18R,1.050000X1.500000*%
%ADD19O,1.050000X1.500000*%
G04 APERTURE END LIST*
D10*
X26880476Y-35584819D02*
X27213809Y-36584819D01*
X27213809Y-36584819D02*
X27547142Y-35584819D01*
X27832857Y-35680057D02*
X27880476Y-35632438D01*
X27880476Y-35632438D02*
X27975714Y-35584819D01*
X27975714Y-35584819D02*
X28213809Y-35584819D01*
X28213809Y-35584819D02*
X28309047Y-35632438D01*
X28309047Y-35632438D02*
X28356666Y-35680057D01*
X28356666Y-35680057D02*
X28404285Y-35775295D01*
X28404285Y-35775295D02*
X28404285Y-35870533D01*
X28404285Y-35870533D02*
X28356666Y-36013390D01*
X28356666Y-36013390D02*
X27785238Y-36584819D01*
X27785238Y-36584819D02*
X28404285Y-36584819D01*
X64584819Y-34856666D02*
X64108628Y-35189999D01*
X64584819Y-35428094D02*
X63584819Y-35428094D01*
X63584819Y-35428094D02*
X63584819Y-35047142D01*
X63584819Y-35047142D02*
X63632438Y-34951904D01*
X63632438Y-34951904D02*
X63680057Y-34904285D01*
X63680057Y-34904285D02*
X63775295Y-34856666D01*
X63775295Y-34856666D02*
X63918152Y-34856666D01*
X63918152Y-34856666D02*
X64013390Y-34904285D01*
X64013390Y-34904285D02*
X64061009Y-34951904D01*
X64061009Y-34951904D02*
X64108628Y-35047142D01*
X64108628Y-35047142D02*
X64108628Y-35428094D01*
X63584819Y-34523332D02*
X63584819Y-33904285D01*
X63584819Y-33904285D02*
X63965771Y-34237618D01*
X63965771Y-34237618D02*
X63965771Y-34094761D01*
X63965771Y-34094761D02*
X64013390Y-33999523D01*
X64013390Y-33999523D02*
X64061009Y-33951904D01*
X64061009Y-33951904D02*
X64156247Y-33904285D01*
X64156247Y-33904285D02*
X64394342Y-33904285D01*
X64394342Y-33904285D02*
X64489580Y-33951904D01*
X64489580Y-33951904D02*
X64537200Y-33999523D01*
X64537200Y-33999523D02*
X64584819Y-34094761D01*
X64584819Y-34094761D02*
X64584819Y-34380475D01*
X64584819Y-34380475D02*
X64537200Y-34475713D01*
X64537200Y-34475713D02*
X64489580Y-34523332D01*
X47023333Y-23084819D02*
X46690000Y-22608628D01*
X46451905Y-23084819D02*
X46451905Y-22084819D01*
X46451905Y-22084819D02*
X46832857Y-22084819D01*
X46832857Y-22084819D02*
X46928095Y-22132438D01*
X46928095Y-22132438D02*
X46975714Y-22180057D01*
X46975714Y-22180057D02*
X47023333Y-22275295D01*
X47023333Y-22275295D02*
X47023333Y-22418152D01*
X47023333Y-22418152D02*
X46975714Y-22513390D01*
X46975714Y-22513390D02*
X46928095Y-22561009D01*
X46928095Y-22561009D02*
X46832857Y-22608628D01*
X46832857Y-22608628D02*
X46451905Y-22608628D01*
X47404286Y-22180057D02*
X47451905Y-22132438D01*
X47451905Y-22132438D02*
X47547143Y-22084819D01*
X47547143Y-22084819D02*
X47785238Y-22084819D01*
X47785238Y-22084819D02*
X47880476Y-22132438D01*
X47880476Y-22132438D02*
X47928095Y-22180057D01*
X47928095Y-22180057D02*
X47975714Y-22275295D01*
X47975714Y-22275295D02*
X47975714Y-22370533D01*
X47975714Y-22370533D02*
X47928095Y-22513390D01*
X47928095Y-22513390D02*
X47356667Y-23084819D01*
X47356667Y-23084819D02*
X47975714Y-23084819D01*
X66491905Y-28414819D02*
X66491905Y-27414819D01*
X66491905Y-27414819D02*
X66730000Y-27414819D01*
X66730000Y-27414819D02*
X66872857Y-27462438D01*
X66872857Y-27462438D02*
X66968095Y-27557676D01*
X66968095Y-27557676D02*
X67015714Y-27652914D01*
X67015714Y-27652914D02*
X67063333Y-27843390D01*
X67063333Y-27843390D02*
X67063333Y-27986247D01*
X67063333Y-27986247D02*
X67015714Y-28176723D01*
X67015714Y-28176723D02*
X66968095Y-28271961D01*
X66968095Y-28271961D02*
X66872857Y-28367200D01*
X66872857Y-28367200D02*
X66730000Y-28414819D01*
X66730000Y-28414819D02*
X66491905Y-28414819D01*
X68015714Y-28414819D02*
X67444286Y-28414819D01*
X67730000Y-28414819D02*
X67730000Y-27414819D01*
X67730000Y-27414819D02*
X67634762Y-27557676D01*
X67634762Y-27557676D02*
X67539524Y-27652914D01*
X67539524Y-27652914D02*
X67444286Y-27700533D01*
X23666666Y-42074819D02*
X23666666Y-42789104D01*
X23666666Y-42789104D02*
X23619047Y-42931961D01*
X23619047Y-42931961D02*
X23523809Y-43027200D01*
X23523809Y-43027200D02*
X23380952Y-43074819D01*
X23380952Y-43074819D02*
X23285714Y-43074819D01*
X24666666Y-43074819D02*
X24095238Y-43074819D01*
X24380952Y-43074819D02*
X24380952Y-42074819D01*
X24380952Y-42074819D02*
X24285714Y-42217676D01*
X24285714Y-42217676D02*
X24190476Y-42312914D01*
X24190476Y-42312914D02*
X24095238Y-42360533D01*
X56428095Y-37124819D02*
X56428095Y-37934342D01*
X56428095Y-37934342D02*
X56475714Y-38029580D01*
X56475714Y-38029580D02*
X56523333Y-38077200D01*
X56523333Y-38077200D02*
X56618571Y-38124819D01*
X56618571Y-38124819D02*
X56809047Y-38124819D01*
X56809047Y-38124819D02*
X56904285Y-38077200D01*
X56904285Y-38077200D02*
X56951904Y-38029580D01*
X56951904Y-38029580D02*
X56999523Y-37934342D01*
X56999523Y-37934342D02*
X56999523Y-37124819D01*
X57428095Y-37220057D02*
X57475714Y-37172438D01*
X57475714Y-37172438D02*
X57570952Y-37124819D01*
X57570952Y-37124819D02*
X57809047Y-37124819D01*
X57809047Y-37124819D02*
X57904285Y-37172438D01*
X57904285Y-37172438D02*
X57951904Y-37220057D01*
X57951904Y-37220057D02*
X57999523Y-37315295D01*
X57999523Y-37315295D02*
X57999523Y-37410533D01*
X57999523Y-37410533D02*
X57951904Y-37553390D01*
X57951904Y-37553390D02*
X57380476Y-38124819D01*
X57380476Y-38124819D02*
X57999523Y-38124819D01*
X51359580Y-42166666D02*
X51407200Y-42214285D01*
X51407200Y-42214285D02*
X51454819Y-42357142D01*
X51454819Y-42357142D02*
X51454819Y-42452380D01*
X51454819Y-42452380D02*
X51407200Y-42595237D01*
X51407200Y-42595237D02*
X51311961Y-42690475D01*
X51311961Y-42690475D02*
X51216723Y-42738094D01*
X51216723Y-42738094D02*
X51026247Y-42785713D01*
X51026247Y-42785713D02*
X50883390Y-42785713D01*
X50883390Y-42785713D02*
X50692914Y-42738094D01*
X50692914Y-42738094D02*
X50597676Y-42690475D01*
X50597676Y-42690475D02*
X50502438Y-42595237D01*
X50502438Y-42595237D02*
X50454819Y-42452380D01*
X50454819Y-42452380D02*
X50454819Y-42357142D01*
X50454819Y-42357142D02*
X50502438Y-42214285D01*
X50502438Y-42214285D02*
X50550057Y-42166666D01*
X50454819Y-41833332D02*
X50454819Y-41214285D01*
X50454819Y-41214285D02*
X50835771Y-41547618D01*
X50835771Y-41547618D02*
X50835771Y-41404761D01*
X50835771Y-41404761D02*
X50883390Y-41309523D01*
X50883390Y-41309523D02*
X50931009Y-41261904D01*
X50931009Y-41261904D02*
X51026247Y-41214285D01*
X51026247Y-41214285D02*
X51264342Y-41214285D01*
X51264342Y-41214285D02*
X51359580Y-41261904D01*
X51359580Y-41261904D02*
X51407200Y-41309523D01*
X51407200Y-41309523D02*
X51454819Y-41404761D01*
X51454819Y-41404761D02*
X51454819Y-41690475D01*
X51454819Y-41690475D02*
X51407200Y-41785713D01*
X51407200Y-41785713D02*
X51359580Y-41833332D01*
X30634761Y-26490057D02*
X30539523Y-26442438D01*
X30539523Y-26442438D02*
X30444285Y-26347200D01*
X30444285Y-26347200D02*
X30301428Y-26204342D01*
X30301428Y-26204342D02*
X30206190Y-26156723D01*
X30206190Y-26156723D02*
X30110952Y-26156723D01*
X30158571Y-26394819D02*
X30063333Y-26347200D01*
X30063333Y-26347200D02*
X29968095Y-26251961D01*
X29968095Y-26251961D02*
X29920476Y-26061485D01*
X29920476Y-26061485D02*
X29920476Y-25728152D01*
X29920476Y-25728152D02*
X29968095Y-25537676D01*
X29968095Y-25537676D02*
X30063333Y-25442438D01*
X30063333Y-25442438D02*
X30158571Y-25394819D01*
X30158571Y-25394819D02*
X30349047Y-25394819D01*
X30349047Y-25394819D02*
X30444285Y-25442438D01*
X30444285Y-25442438D02*
X30539523Y-25537676D01*
X30539523Y-25537676D02*
X30587142Y-25728152D01*
X30587142Y-25728152D02*
X30587142Y-26061485D01*
X30587142Y-26061485D02*
X30539523Y-26251961D01*
X30539523Y-26251961D02*
X30444285Y-26347200D01*
X30444285Y-26347200D02*
X30349047Y-26394819D01*
X30349047Y-26394819D02*
X30158571Y-26394819D01*
X31539523Y-26394819D02*
X30968095Y-26394819D01*
X31253809Y-26394819D02*
X31253809Y-25394819D01*
X31253809Y-25394819D02*
X31158571Y-25537676D01*
X31158571Y-25537676D02*
X31063333Y-25632914D01*
X31063333Y-25632914D02*
X30968095Y-25680533D01*
X52994819Y-25166666D02*
X52518628Y-25499999D01*
X52994819Y-25738094D02*
X51994819Y-25738094D01*
X51994819Y-25738094D02*
X51994819Y-25357142D01*
X51994819Y-25357142D02*
X52042438Y-25261904D01*
X52042438Y-25261904D02*
X52090057Y-25214285D01*
X52090057Y-25214285D02*
X52185295Y-25166666D01*
X52185295Y-25166666D02*
X52328152Y-25166666D01*
X52328152Y-25166666D02*
X52423390Y-25214285D01*
X52423390Y-25214285D02*
X52471009Y-25261904D01*
X52471009Y-25261904D02*
X52518628Y-25357142D01*
X52518628Y-25357142D02*
X52518628Y-25738094D01*
X52994819Y-24214285D02*
X52994819Y-24785713D01*
X52994819Y-24499999D02*
X51994819Y-24499999D01*
X51994819Y-24499999D02*
X52137676Y-24595237D01*
X52137676Y-24595237D02*
X52232914Y-24690475D01*
X52232914Y-24690475D02*
X52280533Y-24785713D01*
X36643333Y-32584819D02*
X36310000Y-32108628D01*
X36071905Y-32584819D02*
X36071905Y-31584819D01*
X36071905Y-31584819D02*
X36452857Y-31584819D01*
X36452857Y-31584819D02*
X36548095Y-31632438D01*
X36548095Y-31632438D02*
X36595714Y-31680057D01*
X36595714Y-31680057D02*
X36643333Y-31775295D01*
X36643333Y-31775295D02*
X36643333Y-31918152D01*
X36643333Y-31918152D02*
X36595714Y-32013390D01*
X36595714Y-32013390D02*
X36548095Y-32061009D01*
X36548095Y-32061009D02*
X36452857Y-32108628D01*
X36452857Y-32108628D02*
X36071905Y-32108628D01*
X37500476Y-31918152D02*
X37500476Y-32584819D01*
X37262381Y-31537200D02*
X37024286Y-32251485D01*
X37024286Y-32251485D02*
X37643333Y-32251485D01*
X23190476Y-23494819D02*
X23190476Y-22494819D01*
X23190476Y-22494819D02*
X23523809Y-23209104D01*
X23523809Y-23209104D02*
X23857142Y-22494819D01*
X23857142Y-22494819D02*
X23857142Y-23494819D01*
X24857142Y-23494819D02*
X24285714Y-23494819D01*
X24571428Y-23494819D02*
X24571428Y-22494819D01*
X24571428Y-22494819D02*
X24476190Y-22637676D01*
X24476190Y-22637676D02*
X24380952Y-22732914D01*
X24380952Y-22732914D02*
X24285714Y-22780533D01*
X43968095Y-30394819D02*
X43968095Y-31204342D01*
X43968095Y-31204342D02*
X44015714Y-31299580D01*
X44015714Y-31299580D02*
X44063333Y-31347200D01*
X44063333Y-31347200D02*
X44158571Y-31394819D01*
X44158571Y-31394819D02*
X44349047Y-31394819D01*
X44349047Y-31394819D02*
X44444285Y-31347200D01*
X44444285Y-31347200D02*
X44491904Y-31299580D01*
X44491904Y-31299580D02*
X44539523Y-31204342D01*
X44539523Y-31204342D02*
X44539523Y-30394819D01*
X45539523Y-31394819D02*
X44968095Y-31394819D01*
X45253809Y-31394819D02*
X45253809Y-30394819D01*
X45253809Y-30394819D02*
X45158571Y-30537676D01*
X45158571Y-30537676D02*
X45063333Y-30632914D01*
X45063333Y-30632914D02*
X44968095Y-30680533D01*
X36833333Y-22859580D02*
X36785714Y-22907200D01*
X36785714Y-22907200D02*
X36642857Y-22954819D01*
X36642857Y-22954819D02*
X36547619Y-22954819D01*
X36547619Y-22954819D02*
X36404762Y-22907200D01*
X36404762Y-22907200D02*
X36309524Y-22811961D01*
X36309524Y-22811961D02*
X36261905Y-22716723D01*
X36261905Y-22716723D02*
X36214286Y-22526247D01*
X36214286Y-22526247D02*
X36214286Y-22383390D01*
X36214286Y-22383390D02*
X36261905Y-22192914D01*
X36261905Y-22192914D02*
X36309524Y-22097676D01*
X36309524Y-22097676D02*
X36404762Y-22002438D01*
X36404762Y-22002438D02*
X36547619Y-21954819D01*
X36547619Y-21954819D02*
X36642857Y-21954819D01*
X36642857Y-21954819D02*
X36785714Y-22002438D01*
X36785714Y-22002438D02*
X36833333Y-22050057D01*
X37690476Y-22288152D02*
X37690476Y-22954819D01*
X37452381Y-21907200D02*
X37214286Y-22621485D01*
X37214286Y-22621485D02*
X37833333Y-22621485D01*
X68359580Y-44666666D02*
X68407200Y-44714285D01*
X68407200Y-44714285D02*
X68454819Y-44857142D01*
X68454819Y-44857142D02*
X68454819Y-44952380D01*
X68454819Y-44952380D02*
X68407200Y-45095237D01*
X68407200Y-45095237D02*
X68311961Y-45190475D01*
X68311961Y-45190475D02*
X68216723Y-45238094D01*
X68216723Y-45238094D02*
X68026247Y-45285713D01*
X68026247Y-45285713D02*
X67883390Y-45285713D01*
X67883390Y-45285713D02*
X67692914Y-45238094D01*
X67692914Y-45238094D02*
X67597676Y-45190475D01*
X67597676Y-45190475D02*
X67502438Y-45095237D01*
X67502438Y-45095237D02*
X67454819Y-44952380D01*
X67454819Y-44952380D02*
X67454819Y-44857142D01*
X67454819Y-44857142D02*
X67502438Y-44714285D01*
X67502438Y-44714285D02*
X67550057Y-44666666D01*
X67550057Y-44285713D02*
X67502438Y-44238094D01*
X67502438Y-44238094D02*
X67454819Y-44142856D01*
X67454819Y-44142856D02*
X67454819Y-43904761D01*
X67454819Y-43904761D02*
X67502438Y-43809523D01*
X67502438Y-43809523D02*
X67550057Y-43761904D01*
X67550057Y-43761904D02*
X67645295Y-43714285D01*
X67645295Y-43714285D02*
X67740533Y-43714285D01*
X67740533Y-43714285D02*
X67883390Y-43761904D01*
X67883390Y-43761904D02*
X68454819Y-44333332D01*
X68454819Y-44333332D02*
X68454819Y-43714285D01*
X30380476Y-42084819D02*
X30713809Y-43084819D01*
X30713809Y-43084819D02*
X31047142Y-42084819D01*
X31904285Y-43084819D02*
X31332857Y-43084819D01*
X31618571Y-43084819D02*
X31618571Y-42084819D01*
X31618571Y-42084819D02*
X31523333Y-42227676D01*
X31523333Y-42227676D02*
X31428095Y-42322914D01*
X31428095Y-42322914D02*
X31332857Y-42370533D01*
X43095238Y-42051009D02*
X43238095Y-42098628D01*
X43238095Y-42098628D02*
X43285714Y-42146247D01*
X43285714Y-42146247D02*
X43333333Y-42241485D01*
X43333333Y-42241485D02*
X43333333Y-42384342D01*
X43333333Y-42384342D02*
X43285714Y-42479580D01*
X43285714Y-42479580D02*
X43238095Y-42527200D01*
X43238095Y-42527200D02*
X43142857Y-42574819D01*
X43142857Y-42574819D02*
X42761905Y-42574819D01*
X42761905Y-42574819D02*
X42761905Y-41574819D01*
X42761905Y-41574819D02*
X43095238Y-41574819D01*
X43095238Y-41574819D02*
X43190476Y-41622438D01*
X43190476Y-41622438D02*
X43238095Y-41670057D01*
X43238095Y-41670057D02*
X43285714Y-41765295D01*
X43285714Y-41765295D02*
X43285714Y-41860533D01*
X43285714Y-41860533D02*
X43238095Y-41955771D01*
X43238095Y-41955771D02*
X43190476Y-42003390D01*
X43190476Y-42003390D02*
X43095238Y-42051009D01*
X43095238Y-42051009D02*
X42761905Y-42051009D01*
X44285714Y-42574819D02*
X43714286Y-42574819D01*
X44000000Y-42574819D02*
X44000000Y-41574819D01*
X44000000Y-41574819D02*
X43904762Y-41717676D01*
X43904762Y-41717676D02*
X43809524Y-41812914D01*
X43809524Y-41812914D02*
X43714286Y-41860533D01*
X37238095Y-42527200D02*
X37380952Y-42574819D01*
X37380952Y-42574819D02*
X37619047Y-42574819D01*
X37619047Y-42574819D02*
X37714285Y-42527200D01*
X37714285Y-42527200D02*
X37761904Y-42479580D01*
X37761904Y-42479580D02*
X37809523Y-42384342D01*
X37809523Y-42384342D02*
X37809523Y-42289104D01*
X37809523Y-42289104D02*
X37761904Y-42193866D01*
X37761904Y-42193866D02*
X37714285Y-42146247D01*
X37714285Y-42146247D02*
X37619047Y-42098628D01*
X37619047Y-42098628D02*
X37428571Y-42051009D01*
X37428571Y-42051009D02*
X37333333Y-42003390D01*
X37333333Y-42003390D02*
X37285714Y-41955771D01*
X37285714Y-41955771D02*
X37238095Y-41860533D01*
X37238095Y-41860533D02*
X37238095Y-41765295D01*
X37238095Y-41765295D02*
X37285714Y-41670057D01*
X37285714Y-41670057D02*
X37333333Y-41622438D01*
X37333333Y-41622438D02*
X37428571Y-41574819D01*
X37428571Y-41574819D02*
X37666666Y-41574819D01*
X37666666Y-41574819D02*
X37809523Y-41622438D01*
X38761904Y-42574819D02*
X38190476Y-42574819D01*
X38476190Y-42574819D02*
X38476190Y-41574819D01*
X38476190Y-41574819D02*
X38380952Y-41717676D01*
X38380952Y-41717676D02*
X38285714Y-41812914D01*
X38285714Y-41812914D02*
X38190476Y-41860533D01*
X55833333Y-28359580D02*
X55785714Y-28407200D01*
X55785714Y-28407200D02*
X55642857Y-28454819D01*
X55642857Y-28454819D02*
X55547619Y-28454819D01*
X55547619Y-28454819D02*
X55404762Y-28407200D01*
X55404762Y-28407200D02*
X55309524Y-28311961D01*
X55309524Y-28311961D02*
X55261905Y-28216723D01*
X55261905Y-28216723D02*
X55214286Y-28026247D01*
X55214286Y-28026247D02*
X55214286Y-27883390D01*
X55214286Y-27883390D02*
X55261905Y-27692914D01*
X55261905Y-27692914D02*
X55309524Y-27597676D01*
X55309524Y-27597676D02*
X55404762Y-27502438D01*
X55404762Y-27502438D02*
X55547619Y-27454819D01*
X55547619Y-27454819D02*
X55642857Y-27454819D01*
X55642857Y-27454819D02*
X55785714Y-27502438D01*
X55785714Y-27502438D02*
X55833333Y-27550057D01*
X56785714Y-28454819D02*
X56214286Y-28454819D01*
X56500000Y-28454819D02*
X56500000Y-27454819D01*
X56500000Y-27454819D02*
X56404762Y-27597676D01*
X56404762Y-27597676D02*
X56309524Y-27692914D01*
X56309524Y-27692914D02*
X56214286Y-27740533D01*
D11*
%TO.C,V2*%
X24420000Y-37130000D02*
X30960000Y-37130000D01*
X24420000Y-37460000D02*
X24420000Y-37130000D01*
X24420000Y-39540000D02*
X24420000Y-39870000D01*
X24420000Y-39870000D02*
X30960000Y-39870000D01*
X30960000Y-37130000D02*
X30960000Y-37460000D01*
X30960000Y-39870000D02*
X30960000Y-39540000D01*
%TO.C,R3*%
X65130000Y-31420000D02*
X65460000Y-31420000D01*
X65130000Y-37960000D02*
X65130000Y-31420000D01*
X65460000Y-37960000D02*
X65130000Y-37960000D01*
X67540000Y-37960000D02*
X67870000Y-37960000D01*
X67870000Y-31420000D02*
X67540000Y-31420000D01*
X67870000Y-37960000D02*
X67870000Y-31420000D01*
%TO.C,R2*%
X43920000Y-23630000D02*
X50460000Y-23630000D01*
X43920000Y-23960000D02*
X43920000Y-23630000D01*
X43920000Y-26040000D02*
X43920000Y-26370000D01*
X43920000Y-26370000D02*
X50460000Y-26370000D01*
X50460000Y-23630000D02*
X50460000Y-23960000D01*
X50460000Y-26370000D02*
X50460000Y-26040000D01*
%TO.C,D1*%
X68790000Y-23920000D02*
X68790000Y-23764000D01*
X68790000Y-26236000D02*
X68790000Y-26080000D01*
X65558563Y-23920000D02*
G75*
G02*
X68790000Y-23764484I1671437J-1080000D01*
G01*
X66189039Y-23920000D02*
G75*
G02*
X68270961Y-23920000I1040961J-1080000D01*
G01*
X68270961Y-26080000D02*
G75*
G02*
X66189039Y-26080000I-1040961J1080000D01*
G01*
X68790000Y-26235516D02*
G75*
G02*
X65558563Y-26080000I-1560000J1235516D01*
G01*
%TO.C,J1*%
X22620000Y-43620000D02*
X24000000Y-43620000D01*
X22620000Y-45000000D02*
X22620000Y-43620000D01*
X22620000Y-46270000D02*
X22620000Y-48920000D01*
X22620000Y-46270000D02*
X25380000Y-46270000D01*
X22620000Y-48920000D02*
X25380000Y-48920000D01*
X25380000Y-46270000D02*
X25380000Y-48920000D01*
%TO.C,U2*%
X54540000Y-38670000D02*
X54540000Y-48950000D01*
X54540000Y-48950000D02*
X59840000Y-48950000D01*
X56190000Y-38670000D02*
X54540000Y-38670000D01*
X59840000Y-38670000D02*
X58190000Y-38670000D01*
X59840000Y-48950000D02*
X59840000Y-38670000D01*
X58190000Y-38670000D02*
G75*
G02*
X56190000Y-38670000I-1000000J0D01*
G01*
%TO.C,C3*%
X47130000Y-39380000D02*
X47467000Y-39380000D01*
X47130000Y-44620000D02*
X47130000Y-39380000D01*
X47467000Y-44620000D02*
X47130000Y-44620000D01*
X49533000Y-39380000D02*
X49870000Y-39380000D01*
X49870000Y-39380000D02*
X49870000Y-44620000D01*
X49870000Y-44620000D02*
X49533000Y-44620000D01*
%TO.C,Q1*%
X28930000Y-31350000D02*
X32530000Y-31350000D01*
X28891522Y-31338478D02*
G75*
G02*
X30730000Y-26899999I1838478J1838478D01*
G01*
X30730000Y-26900000D02*
G75*
G02*
X32568478Y-31338478I0J-2600000D01*
G01*
%TO.C,R1*%
X53540000Y-26380000D02*
X53540000Y-25000000D01*
X54920000Y-26380000D02*
X53540000Y-26380000D01*
X56190000Y-23620000D02*
X61380000Y-23620000D01*
X56190000Y-26380000D02*
X56190000Y-23620000D01*
X56190000Y-26380000D02*
X61380000Y-26380000D01*
X61380000Y-26380000D02*
X61380000Y-23620000D01*
%TO.C,R4*%
X33540000Y-33130000D02*
X40080000Y-33130000D01*
X33540000Y-33460000D02*
X33540000Y-33130000D01*
X33540000Y-35540000D02*
X33540000Y-35870000D01*
X33540000Y-35870000D02*
X40080000Y-35870000D01*
X40080000Y-33130000D02*
X40080000Y-33460000D01*
X40080000Y-35870000D02*
X40080000Y-35540000D01*
%TO.C,M1*%
X22620000Y-24120000D02*
X24000000Y-24120000D01*
X22620000Y-25500000D02*
X22620000Y-24120000D01*
X22620000Y-26770000D02*
X22620000Y-29420000D01*
X22620000Y-26770000D02*
X25380000Y-26770000D01*
X22620000Y-29420000D02*
X25380000Y-29420000D01*
X25380000Y-26770000D02*
X25380000Y-29420000D01*
%TO.C,U1*%
X42930000Y-36350000D02*
X46530000Y-36350000D01*
X42891522Y-36338478D02*
G75*
G02*
X44730000Y-31899999I1838478J1838478D01*
G01*
X44730000Y-31900000D02*
G75*
G02*
X46568478Y-36338478I0J-2600000D01*
G01*
%TO.C,C4*%
X34380000Y-23630000D02*
X39620000Y-23630000D01*
X34380000Y-23967000D02*
X34380000Y-23630000D01*
X34380000Y-26370000D02*
X34380000Y-26033000D01*
X39620000Y-23630000D02*
X39620000Y-23967000D01*
X39620000Y-26033000D02*
X39620000Y-26370000D01*
X39620000Y-26370000D02*
X34380000Y-26370000D01*
%TO.C,C2*%
X64130000Y-41880000D02*
X64467000Y-41880000D01*
X64130000Y-47120000D02*
X64130000Y-41880000D01*
X64467000Y-47120000D02*
X64130000Y-47120000D01*
X66533000Y-41880000D02*
X66870000Y-41880000D01*
X66870000Y-41880000D02*
X66870000Y-47120000D01*
X66870000Y-47120000D02*
X66533000Y-47120000D01*
%TO.C,V1*%
X27920000Y-43630000D02*
X34460000Y-43630000D01*
X27920000Y-43960000D02*
X27920000Y-43630000D01*
X27920000Y-46040000D02*
X27920000Y-46370000D01*
X27920000Y-46370000D02*
X34460000Y-46370000D01*
X34460000Y-43630000D02*
X34460000Y-43960000D01*
X34460000Y-46370000D02*
X34460000Y-46040000D01*
%TO.C,B1*%
X42120000Y-43120000D02*
X43500000Y-43120000D01*
X42120000Y-44500000D02*
X42120000Y-43120000D01*
X42120000Y-45770000D02*
X42120000Y-48420000D01*
X42120000Y-45770000D02*
X44880000Y-45770000D01*
X42120000Y-48420000D02*
X44880000Y-48420000D01*
X44880000Y-45770000D02*
X44880000Y-48420000D01*
%TO.C,S1*%
X36620000Y-43120000D02*
X38000000Y-43120000D01*
X36620000Y-44500000D02*
X36620000Y-43120000D01*
X36620000Y-45770000D02*
X36620000Y-48420000D01*
X36620000Y-45770000D02*
X39380000Y-45770000D01*
X36620000Y-48420000D02*
X39380000Y-48420000D01*
X39380000Y-45770000D02*
X39380000Y-48420000D01*
%TO.C,C1*%
X53380000Y-29130000D02*
X58620000Y-29130000D01*
X53380000Y-29467000D02*
X53380000Y-29130000D01*
X53380000Y-31870000D02*
X53380000Y-31533000D01*
X58620000Y-29130000D02*
X58620000Y-29467000D01*
X58620000Y-31533000D02*
X58620000Y-31870000D01*
X58620000Y-31870000D02*
X53380000Y-31870000D01*
%TD*%
%LPC*%
D12*
%TO.C,V2*%
X23880000Y-38500000D03*
X31500000Y-38500000D03*
%TD*%
%TO.C,R3*%
X66500000Y-38500000D03*
X66500000Y-30880000D03*
%TD*%
%TO.C,R2*%
X43380000Y-25000000D03*
X51000000Y-25000000D03*
%TD*%
D13*
%TO.C,D1*%
X68500000Y-25000000D03*
D14*
X65960000Y-25000000D03*
%TD*%
D15*
%TO.C,J1*%
X24000000Y-45000000D03*
D16*
X24000000Y-47540000D03*
%TD*%
D17*
%TO.C,U2*%
X53380000Y-40000000D03*
D12*
X53380000Y-42540000D03*
X53380000Y-45080000D03*
X53380000Y-47620000D03*
X61000000Y-47620000D03*
X61000000Y-45080000D03*
X61000000Y-42540000D03*
X61000000Y-40000000D03*
%TD*%
%TO.C,C3*%
X48500000Y-39500000D03*
X48500000Y-44500000D03*
%TD*%
D18*
%TO.C,Q1*%
X29460000Y-29500000D03*
D19*
X30730000Y-29500000D03*
X32000000Y-29500000D03*
%TD*%
D15*
%TO.C,R1*%
X54920000Y-25000000D03*
D16*
X57460000Y-25000000D03*
X60000000Y-25000000D03*
%TD*%
D12*
%TO.C,R4*%
X33000000Y-34500000D03*
X40620000Y-34500000D03*
%TD*%
D15*
%TO.C,M1*%
X24000000Y-25500000D03*
D16*
X24000000Y-28040000D03*
%TD*%
D18*
%TO.C,U1*%
X43460000Y-34500000D03*
D19*
X44730000Y-34500000D03*
X46000000Y-34500000D03*
%TD*%
D12*
%TO.C,C4*%
X34500000Y-25000000D03*
X39500000Y-25000000D03*
%TD*%
%TO.C,C2*%
X65500000Y-42000000D03*
X65500000Y-47000000D03*
%TD*%
%TO.C,V1*%
X27380000Y-45000000D03*
X35000000Y-45000000D03*
%TD*%
D15*
%TO.C,B1*%
X43500000Y-44500000D03*
D16*
X43500000Y-47040000D03*
%TD*%
D15*
%TO.C,S1*%
X38000000Y-44500000D03*
D16*
X38000000Y-47040000D03*
%TD*%
D12*
%TO.C,C1*%
X53500000Y-30500000D03*
X58500000Y-30500000D03*
%TD*%
%LPD*%
M02*
