%TF.GenerationSoftware,KiCad,Pcbnew,9.0.8*%
%TF.CreationDate,2026-03-16T17:38:59-07:00*%
%TF.ProjectId,tdcs,74646373-2e6b-4696-9361-645f70636258,rev?*%
%TF.SameCoordinates,Original*%
%TF.FileFunction,Legend,Bot*%
%TF.FilePolarity,Positive*%
%FSLAX46Y46*%
G04 Gerber Fmt 4.6, Leading zero omitted, Abs format (unit mm)*
G04 Created by KiCad (PCBNEW 9.0.8) date 2026-03-16 17:38:59*
%MOMM*%
%LPD*%
G01*
G04 APERTURE LIST*
G04 Aperture macros list*
%AMRoundRect*
0 Rectangle with rounded corners*
0 $1 Rounding radius*
0 $2 $3 $4 $5 $6 $7 $8 $9 X,Y pos of 4 corners*
0 Add a 4 corners polygon primitive as box body*
4,1,4,$2,$3,$4,$5,$6,$7,$8,$9,$2,$3,0*
0 Add four circle primitives for the rounded corners*
1,1,$1+$1,$2,$3*
1,1,$1+$1,$4,$5*
1,1,$1+$1,$6,$7*
1,1,$1+$1,$8,$9*
0 Add four rect primitives between the rounded corners*
20,1,$1+$1,$2,$3,$4,$5,0*
20,1,$1+$1,$4,$5,$6,$7,0*
20,1,$1+$1,$6,$7,$8,$9,0*
20,1,$1+$1,$8,$9,$2,$3,0*%
G04 Aperture macros list end*
%ADD10C,1.600000*%
%ADD11R,1.800000X1.800000*%
%ADD12C,1.800000*%
%ADD13R,1.700000X1.700000*%
%ADD14C,1.700000*%
%ADD15RoundRect,0.250000X-0.550000X-0.550000X0.550000X-0.550000X0.550000X0.550000X-0.550000X0.550000X0*%
%ADD16R,1.050000X1.500000*%
%ADD17O,1.050000X1.500000*%
G04 APERTURE END LIST*
%LPC*%
D10*
%TO.C,V2*%
X23880000Y-38500000D03*
X31500000Y-38500000D03*
%TD*%
%TO.C,R3*%
X66500000Y-38500000D03*
X66500000Y-30880000D03*
%TD*%
%TO.C,R2*%
X43380000Y-25000000D03*
X51000000Y-25000000D03*
%TD*%
D11*
%TO.C,D1*%
X68500000Y-25000000D03*
D12*
X65960000Y-25000000D03*
%TD*%
D13*
%TO.C,J1*%
X24000000Y-45000000D03*
D14*
X24000000Y-47540000D03*
%TD*%
D15*
%TO.C,U2*%
X53380000Y-40000000D03*
D10*
X53380000Y-42540000D03*
X53380000Y-45080000D03*
X53380000Y-47620000D03*
X61000000Y-47620000D03*
X61000000Y-45080000D03*
X61000000Y-42540000D03*
X61000000Y-40000000D03*
%TD*%
%TO.C,C3*%
X48500000Y-39500000D03*
X48500000Y-44500000D03*
%TD*%
D16*
%TO.C,Q1*%
X29460000Y-29500000D03*
D17*
X30730000Y-29500000D03*
X32000000Y-29500000D03*
%TD*%
D13*
%TO.C,R1*%
X54920000Y-25000000D03*
D14*
X57460000Y-25000000D03*
X60000000Y-25000000D03*
%TD*%
D10*
%TO.C,R4*%
X33000000Y-34500000D03*
X40620000Y-34500000D03*
%TD*%
D13*
%TO.C,M1*%
X24000000Y-25500000D03*
D14*
X24000000Y-28040000D03*
%TD*%
D16*
%TO.C,U1*%
X43460000Y-34500000D03*
D17*
X44730000Y-34500000D03*
X46000000Y-34500000D03*
%TD*%
D10*
%TO.C,C4*%
X34500000Y-25000000D03*
X39500000Y-25000000D03*
%TD*%
%TO.C,C2*%
X65500000Y-42000000D03*
X65500000Y-47000000D03*
%TD*%
%TO.C,V1*%
X27380000Y-45000000D03*
X35000000Y-45000000D03*
%TD*%
D13*
%TO.C,B1*%
X43500000Y-44500000D03*
D14*
X43500000Y-47040000D03*
%TD*%
D13*
%TO.C,S1*%
X38000000Y-44500000D03*
D14*
X38000000Y-47040000D03*
%TD*%
D10*
%TO.C,C1*%
X53500000Y-30500000D03*
X58500000Y-30500000D03*
%TD*%
%LPD*%
M02*
