%TF.GenerationSoftware,KiCad,Pcbnew,9.0.8*%
%TF.CreationDate,2026-03-16T17:38:59-07:00*%
%TF.ProjectId,tdcs,74646373-2e6b-4696-9361-645f70636258,rev?*%
%TF.SameCoordinates,Original*%
%TF.FileFunction,Copper,L1,Top*%
%TF.FilePolarity,Positive*%
%FSLAX46Y46*%
G04 Gerber Fmt 4.6, Leading zero omitted, Abs format (unit mm)*
G04 Created by KiCad (PCBNEW 9.0.8) date 2026-03-16 17:38:59*
%MOMM*%
%LPD*%
G01*
G04 APERTURE LIST*
G04 Aperture macros list*
%AMRoundRect*
0 Rectangle with rounded corners*
0 $1 Rounding radius*
0 $2 $3 $4 $5 $6 $7 $8 $9 X,Y pos of 4 corners*
0 Add a 4 corners polygon primitive as box body*
4,1,4,$2,$3,$4,$5,$6,$7,$8,$9,$2,$3,0*
0 Add four circle primitives for the rounded corners*
1,1,$1+$1,$2,$3*
1,1,$1+$1,$4,$5*
1,1,$1+$1,$6,$7*
1,1,$1+$1,$8,$9*
0 Add four rect primitives between the rounded corners*
20,1,$1+$1,$2,$3,$4,$5,0*
20,1,$1+$1,$4,$5,$6,$7,0*
20,1,$1+$1,$6,$7,$8,$9,0*
20,1,$1+$1,$8,$9,$2,$3,0*%
G04 Aperture macros list end*
%TA.AperFunction,ComponentPad*%
%ADD10C,1.600000*%
%TD*%
%TA.AperFunction,ComponentPad*%
%ADD11R,1.800000X1.800000*%
%TD*%
%TA.AperFunction,ComponentPad*%
%ADD12C,1.800000*%
%TD*%
%TA.AperFunction,ComponentPad*%
%ADD13R,1.700000X1.700000*%
%TD*%
%TA.AperFunction,ComponentPad*%
%ADD14C,1.700000*%
%TD*%
%TA.AperFunction,ComponentPad*%
%ADD15RoundRect,0.250000X-0.550000X-0.550000X0.550000X-0.550000X0.550000X0.550000X-0.550000X0.550000X0*%
%TD*%
%TA.AperFunction,ComponentPad*%
%ADD16R,1.050000X1.500000*%
%TD*%
%TA.AperFunction,ComponentPad*%
%ADD17O,1.050000X1.500000*%
%TD*%
%TA.AperFunction,Conductor*%
%ADD18C,0.300000*%
%TD*%
G04 APERTURE END LIST*
D10*
%TO.P,V2,1*%
%TO.N,Net-(M1-+)*%
X23880000Y-38500000D03*
%TO.P,V2,2*%
%TO.N,GND*%
X31500000Y-38500000D03*
%TD*%
%TO.P,R3,1*%
%TO.N,VCC*%
X66500000Y-38500000D03*
%TO.P,R3,2*%
%TO.N,Net-(D1-A)*%
X66500000Y-30880000D03*
%TD*%
%TO.P,R2,1*%
%TO.N,Net-(R2-Pad1)*%
X43380000Y-25000000D03*
%TO.P,R2,2*%
%TO.N,Net-(R1-Pad2)*%
X51000000Y-25000000D03*
%TD*%
D11*
%TO.P,D1,1,K*%
%TO.N,GND*%
X68500000Y-25000000D03*
D12*
%TO.P,D1,2,A*%
%TO.N,Net-(D1-A)*%
X65960000Y-25000000D03*
%TD*%
D13*
%TO.P,J1,1,Pin_1*%
%TO.N,Net-(J1-Pin_1)*%
X24000000Y-45000000D03*
D14*
%TO.P,J1,2,Pin_2*%
%TO.N,Net-(J1-Pin_2)*%
X24000000Y-47540000D03*
%TD*%
D15*
%TO.P,U2,1,C1-*%
%TO.N,Net-(U2-C1-)*%
X53380000Y-40000000D03*
D10*
%TO.P,U2,2,C2+*%
%TO.N,Net-(U2-C2+)*%
X53380000Y-42540000D03*
%TO.P,U2,3,C2-*%
%TO.N,Net-(U2-C2-)*%
X53380000Y-45080000D03*
%TO.P,U2,4,-Vout*%
%TO.N,Net-(Q1-G)*%
X53380000Y-47620000D03*
%TO.P,U2,5,GND*%
%TO.N,GND*%
X61000000Y-47620000D03*
%TO.P,U2,6,Vin*%
%TO.N,VCC*%
X61000000Y-45080000D03*
%TO.P,U2,7,C1+*%
%TO.N,Net-(U2-C1+)*%
X61000000Y-42540000D03*
%TO.P,U2,8,+Vout*%
%TO.N,Net-(U2-+Vout)*%
X61000000Y-40000000D03*
%TD*%
%TO.P,C3,1*%
%TO.N,Net-(U2-C2+)*%
X48500000Y-39500000D03*
%TO.P,C3,2*%
%TO.N,Net-(U2-C2-)*%
X48500000Y-44500000D03*
%TD*%
D16*
%TO.P,Q1,1,D*%
%TO.N,Net-(M1-+)*%
X29460000Y-29500000D03*
D17*
%TO.P,Q1,2,S*%
%TO.N,Net-(Q1-S)*%
X30730000Y-29500000D03*
%TO.P,Q1,3,G*%
%TO.N,Net-(Q1-G)*%
X32000000Y-29500000D03*
%TD*%
D13*
%TO.P,R1,1,1*%
%TO.N,Net-(J1-Pin_2)*%
X54920000Y-25000000D03*
D14*
%TO.P,R1,2,2*%
%TO.N,Net-(R1-Pad2)*%
X57460000Y-25000000D03*
%TO.P,R1,3,3*%
X60000000Y-25000000D03*
%TD*%
D10*
%TO.P,R4,1*%
%TO.N,Net-(Q1-G)*%
X33000000Y-34500000D03*
%TO.P,R4,2*%
%TO.N,Net-(Q1-S)*%
X40620000Y-34500000D03*
%TD*%
D13*
%TO.P,M1,1,-*%
%TO.N,Net-(J1-Pin_1)*%
X24000000Y-25500000D03*
D14*
%TO.P,M1,2,+*%
%TO.N,Net-(M1-+)*%
X24000000Y-28040000D03*
%TD*%
D16*
%TO.P,U1,1*%
%TO.N,Net-(U2-+Vout)*%
X43460000Y-34500000D03*
D17*
%TO.P,U1,2*%
%TO.N,Net-(R2-Pad1)*%
X44730000Y-34500000D03*
%TO.P,U1,3*%
%TO.N,Net-(J1-Pin_2)*%
X46000000Y-34500000D03*
%TD*%
D10*
%TO.P,C4,1*%
%TO.N,Net-(Q1-G)*%
X34500000Y-25000000D03*
%TO.P,C4,2*%
%TO.N,GND*%
X39500000Y-25000000D03*
%TD*%
%TO.P,C2,1*%
%TO.N,Net-(U2-+Vout)*%
X65500000Y-42000000D03*
%TO.P,C2,2*%
%TO.N,GND*%
X65500000Y-47000000D03*
%TD*%
%TO.P,V1,1*%
%TO.N,Net-(J1-Pin_2)*%
X27380000Y-45000000D03*
%TO.P,V1,2*%
%TO.N,GND*%
X35000000Y-45000000D03*
%TD*%
D13*
%TO.P,B1,1,+*%
%TO.N,VCC*%
X43500000Y-44500000D03*
D14*
%TO.P,B1,2,-*%
%TO.N,Net-(B1--)*%
X43500000Y-47040000D03*
%TD*%
D13*
%TO.P,S1,1,A*%
%TO.N,GND*%
X38000000Y-44500000D03*
D14*
%TO.P,S1,2,B*%
%TO.N,Net-(B1--)*%
X38000000Y-47040000D03*
%TD*%
D10*
%TO.P,C1,1*%
%TO.N,Net-(U2-C1-)*%
X53500000Y-30500000D03*
%TO.P,C1,2*%
%TO.N,Net-(U2-C1+)*%
X58500000Y-30500000D03*
%TD*%
D18*
%TO.N,Net-(B1--)*%
X38000000Y-47040000D02*
X43500000Y-47040000D01*
%TO.N,VCC*%
X59850000Y-43930000D02*
X49743654Y-43930000D01*
X61000000Y-45080000D02*
X62150000Y-43930000D01*
X61000000Y-45080000D02*
X59850000Y-43930000D01*
X49743654Y-43930000D02*
X49163654Y-43350000D01*
X49163654Y-43350000D02*
X44650000Y-43350000D01*
X62150000Y-43930000D02*
X62150000Y-42850000D01*
X44650000Y-43350000D02*
X43500000Y-44500000D01*
X62150000Y-42850000D02*
X66500000Y-38500000D01*
%TO.N,Net-(U2-C1+)*%
X58500000Y-40040000D02*
X61000000Y-42540000D01*
X58500000Y-30500000D02*
X58500000Y-40040000D01*
%TO.N,Net-(U2-C1-)*%
X53380000Y-30620000D02*
X53500000Y-30500000D01*
X53380000Y-40000000D02*
X53380000Y-30620000D01*
%TO.N,Net-(U2-+Vout)*%
X46362437Y-35600000D02*
X44367563Y-35600000D01*
X67650000Y-39850000D02*
X65500000Y-42000000D01*
X61000000Y-31373654D02*
X58976346Y-29350000D01*
X44367563Y-35600000D02*
X43460000Y-34692437D01*
X66976346Y-37350000D02*
X67650000Y-38023654D01*
X61000000Y-40000000D02*
X61000000Y-31373654D01*
X58976346Y-29350000D02*
X52612437Y-29350000D01*
X52612437Y-29350000D02*
X46362437Y-35600000D01*
X61000000Y-40000000D02*
X63650000Y-37350000D01*
X63650000Y-37350000D02*
X66976346Y-37350000D01*
X43460000Y-34692437D02*
X43460000Y-34500000D01*
X67650000Y-38023654D02*
X67650000Y-39850000D01*
%TO.N,GND*%
X39200000Y-45700000D02*
X52373654Y-45700000D01*
X31500000Y-38500000D02*
X31500000Y-41500000D01*
X68500000Y-44000000D02*
X65500000Y-47000000D01*
X61000000Y-47620000D02*
X64880000Y-47620000D01*
X31500000Y-38500000D02*
X31500000Y-33000000D01*
X52903654Y-46230000D02*
X59610000Y-46230000D01*
X31500000Y-33000000D02*
X39500000Y-25000000D01*
X38000000Y-44500000D02*
X39200000Y-45700000D01*
X64880000Y-47620000D02*
X65500000Y-47000000D01*
X31500000Y-41500000D02*
X35000000Y-45000000D01*
X59610000Y-46230000D02*
X61000000Y-47620000D01*
X68500000Y-25000000D02*
X68500000Y-44000000D01*
X35000000Y-45000000D02*
X35500000Y-44500000D01*
X52373654Y-45700000D02*
X52903654Y-46230000D01*
X35500000Y-44500000D02*
X38000000Y-44500000D01*
%TO.N,Net-(U2-C2+)*%
X50340000Y-39500000D02*
X53380000Y-42540000D01*
X48500000Y-39500000D02*
X50340000Y-39500000D01*
%TO.N,Net-(U2-C2-)*%
X48500000Y-44500000D02*
X52800000Y-44500000D01*
X52800000Y-44500000D02*
X53380000Y-45080000D01*
%TO.N,Net-(Q1-G)*%
X30350000Y-32523654D02*
X30350000Y-41976346D01*
X35650000Y-23850000D02*
X34500000Y-25000000D01*
X30350000Y-41976346D02*
X36793653Y-48419999D01*
X39976346Y-23850000D02*
X35650000Y-23850000D01*
X52580001Y-48419999D02*
X53380000Y-47620000D01*
X33000000Y-34500000D02*
X40650000Y-26850000D01*
X39023654Y-23850000D02*
X30350000Y-32523654D01*
X40650000Y-24523654D02*
X39976346Y-23850000D01*
X40650000Y-26850000D02*
X40650000Y-24523654D01*
X39976346Y-23850000D02*
X39023654Y-23850000D01*
X32000000Y-27500000D02*
X34500000Y-25000000D01*
X32000000Y-29500000D02*
X32000000Y-27500000D01*
X36793653Y-48419999D02*
X52580001Y-48419999D01*
%TO.N,Net-(D1-A)*%
X65960000Y-25000000D02*
X65960000Y-30340000D01*
X65960000Y-30340000D02*
X66500000Y-30880000D01*
%TO.N,Net-(J1-Pin_2)*%
X30326548Y-26840000D02*
X34316548Y-22850000D01*
X46000000Y-25993654D02*
X46000000Y-34500000D01*
X22730000Y-27612943D02*
X23502943Y-26840000D01*
X42856346Y-22850000D02*
X46000000Y-25993654D01*
X24840000Y-47540000D02*
X24000000Y-47540000D01*
X22730000Y-40350000D02*
X22730000Y-27612943D01*
X27380000Y-45000000D02*
X22730000Y-40350000D01*
X46000000Y-34500000D02*
X46000000Y-33920000D01*
X27380000Y-45000000D02*
X24840000Y-47540000D01*
X46000000Y-33920000D02*
X54920000Y-25000000D01*
X34316548Y-22850000D02*
X42856346Y-22850000D01*
X23502943Y-26840000D02*
X30326548Y-26840000D01*
%TO.N,Net-(J1-Pin_1)*%
X21500000Y-45000000D02*
X24000000Y-45000000D01*
X24000000Y-25500000D02*
X21500000Y-25500000D01*
X21500000Y-25500000D02*
X21500000Y-45000000D01*
%TO.N,Net-(M1-+)*%
X24000000Y-38380000D02*
X23880000Y-38500000D01*
X24000000Y-28040000D02*
X25460000Y-29500000D01*
X24000000Y-28040000D02*
X24000000Y-38380000D01*
X25460000Y-29500000D02*
X29460000Y-29500000D01*
%TO.N,Net-(Q1-S)*%
X41150000Y-24316547D02*
X40183452Y-23350000D01*
X34523654Y-23350000D02*
X30730000Y-27143654D01*
X40620000Y-34500000D02*
X41150000Y-33970000D01*
X41150000Y-33970000D02*
X41150000Y-24316547D01*
X30730000Y-27143654D02*
X30730000Y-29500000D01*
X40183452Y-23350000D02*
X34523654Y-23350000D01*
%TO.N,Net-(R1-Pad2)*%
X52200000Y-23800000D02*
X56260000Y-23800000D01*
X56260000Y-23800000D02*
X57460000Y-25000000D01*
X60000000Y-25000000D02*
X57460000Y-25000000D01*
X51000000Y-25000000D02*
X52200000Y-23800000D01*
%TO.N,Net-(R2-Pad1)*%
X44730000Y-26350000D02*
X43380000Y-25000000D01*
X44730000Y-34500000D02*
X44730000Y-26350000D01*
%TD*%
M02*
