%TF.GenerationSoftware,KiCad,Pcbnew,9.0.8*%
%TF.CreationDate,2026-03-16T17:38:59-07:00*%
%TF.ProjectId,tdcs,74646373-2e6b-4696-9361-645f70636258,rev?*%
%TF.SameCoordinates,Original*%
%TF.FileFunction,Drillmap*%
%TF.FilePolarity,Positive*%
%FSLAX45Y45*%
G04 Gerber Fmt 4.5, Leading zero omitted, Abs format (unit mm)*
G04 Created by KiCad (PCBNEW 9.0.8) date 2026-03-16 17:38:59*
%MOMM*%
%LPD*%
G01*
G04 APERTURE LIST*
%ADD10C,0.150000*%
%ADD11C,0.200000*%
%ADD12C,0.100000*%
G04 APERTURE END LIST*
D10*
X2000000Y-2100000D02*
X7000000Y-2100000D01*
X7000000Y-5100000D01*
X2000000Y-5100000D01*
X2000000Y-2100000D01*
D11*
D12*
X2908500Y-2912500D02*
X2983500Y-2987500D01*
X2983500Y-2912500D02*
X2908500Y-2987500D01*
X3035500Y-2912500D02*
X3110500Y-2987500D01*
X3110500Y-2912500D02*
X3035500Y-2987500D01*
X3162500Y-2912500D02*
X3237500Y-2987500D01*
X3237500Y-2912500D02*
X3162500Y-2987500D01*
X4308500Y-3412500D02*
X4383500Y-3487500D01*
X4383500Y-3412500D02*
X4308500Y-3487500D01*
X4435500Y-3412500D02*
X4510500Y-3487500D01*
X4510500Y-3412500D02*
X4435500Y-3487500D01*
X4562500Y-3412500D02*
X4637500Y-3487500D01*
X4637500Y-3412500D02*
X4562500Y-3487500D01*
X2428000Y-3850000D02*
G75*
G02*
X2348000Y-3850000I-40000J0D01*
G01*
X2348000Y-3850000D02*
G75*
G02*
X2428000Y-3850000I40000J0D01*
G01*
X2778000Y-4500000D02*
G75*
G02*
X2698000Y-4500000I-40000J0D01*
G01*
X2698000Y-4500000D02*
G75*
G02*
X2778000Y-4500000I40000J0D01*
G01*
X3190000Y-3850000D02*
G75*
G02*
X3110000Y-3850000I-40000J0D01*
G01*
X3110000Y-3850000D02*
G75*
G02*
X3190000Y-3850000I40000J0D01*
G01*
X3340000Y-3450000D02*
G75*
G02*
X3260000Y-3450000I-40000J0D01*
G01*
X3260000Y-3450000D02*
G75*
G02*
X3340000Y-3450000I40000J0D01*
G01*
X3490000Y-2500000D02*
G75*
G02*
X3410000Y-2500000I-40000J0D01*
G01*
X3410000Y-2500000D02*
G75*
G02*
X3490000Y-2500000I40000J0D01*
G01*
X3540000Y-4500000D02*
G75*
G02*
X3460000Y-4500000I-40000J0D01*
G01*
X3460000Y-4500000D02*
G75*
G02*
X3540000Y-4500000I40000J0D01*
G01*
X3990000Y-2500000D02*
G75*
G02*
X3910000Y-2500000I-40000J0D01*
G01*
X3910000Y-2500000D02*
G75*
G02*
X3990000Y-2500000I40000J0D01*
G01*
X4102000Y-3450000D02*
G75*
G02*
X4022000Y-3450000I-40000J0D01*
G01*
X4022000Y-3450000D02*
G75*
G02*
X4102000Y-3450000I40000J0D01*
G01*
X4378000Y-2500000D02*
G75*
G02*
X4298000Y-2500000I-40000J0D01*
G01*
X4298000Y-2500000D02*
G75*
G02*
X4378000Y-2500000I40000J0D01*
G01*
X4890000Y-3950000D02*
G75*
G02*
X4810000Y-3950000I-40000J0D01*
G01*
X4810000Y-3950000D02*
G75*
G02*
X4890000Y-3950000I40000J0D01*
G01*
X4890000Y-4450000D02*
G75*
G02*
X4810000Y-4450000I-40000J0D01*
G01*
X4810000Y-4450000D02*
G75*
G02*
X4890000Y-4450000I40000J0D01*
G01*
X5140000Y-2500000D02*
G75*
G02*
X5060000Y-2500000I-40000J0D01*
G01*
X5060000Y-2500000D02*
G75*
G02*
X5140000Y-2500000I40000J0D01*
G01*
X5378000Y-4000000D02*
G75*
G02*
X5298000Y-4000000I-40000J0D01*
G01*
X5298000Y-4000000D02*
G75*
G02*
X5378000Y-4000000I40000J0D01*
G01*
X5378000Y-4254000D02*
G75*
G02*
X5298000Y-4254000I-40000J0D01*
G01*
X5298000Y-4254000D02*
G75*
G02*
X5378000Y-4254000I40000J0D01*
G01*
X5378000Y-4508000D02*
G75*
G02*
X5298000Y-4508000I-40000J0D01*
G01*
X5298000Y-4508000D02*
G75*
G02*
X5378000Y-4508000I40000J0D01*
G01*
X5378000Y-4762000D02*
G75*
G02*
X5298000Y-4762000I-40000J0D01*
G01*
X5298000Y-4762000D02*
G75*
G02*
X5378000Y-4762000I40000J0D01*
G01*
X5390000Y-3050000D02*
G75*
G02*
X5310000Y-3050000I-40000J0D01*
G01*
X5310000Y-3050000D02*
G75*
G02*
X5390000Y-3050000I40000J0D01*
G01*
X5890000Y-3050000D02*
G75*
G02*
X5810000Y-3050000I-40000J0D01*
G01*
X5810000Y-3050000D02*
G75*
G02*
X5890000Y-3050000I40000J0D01*
G01*
X6140000Y-4000000D02*
G75*
G02*
X6060000Y-4000000I-40000J0D01*
G01*
X6060000Y-4000000D02*
G75*
G02*
X6140000Y-4000000I40000J0D01*
G01*
X6140000Y-4254000D02*
G75*
G02*
X6060000Y-4254000I-40000J0D01*
G01*
X6060000Y-4254000D02*
G75*
G02*
X6140000Y-4254000I40000J0D01*
G01*
X6140000Y-4508000D02*
G75*
G02*
X6060000Y-4508000I-40000J0D01*
G01*
X6060000Y-4508000D02*
G75*
G02*
X6140000Y-4508000I40000J0D01*
G01*
X6140000Y-4762000D02*
G75*
G02*
X6060000Y-4762000I-40000J0D01*
G01*
X6060000Y-4762000D02*
G75*
G02*
X6140000Y-4762000I40000J0D01*
G01*
X6590000Y-4200000D02*
G75*
G02*
X6510000Y-4200000I-40000J0D01*
G01*
X6510000Y-4200000D02*
G75*
G02*
X6590000Y-4200000I40000J0D01*
G01*
X6590000Y-4700000D02*
G75*
G02*
X6510000Y-4700000I-40000J0D01*
G01*
X6510000Y-4700000D02*
G75*
G02*
X6590000Y-4700000I40000J0D01*
G01*
X6690000Y-3088000D02*
G75*
G02*
X6610000Y-3088000I-40000J0D01*
G01*
X6610000Y-3088000D02*
G75*
G02*
X6690000Y-3088000I40000J0D01*
G01*
X6690000Y-3850000D02*
G75*
G02*
X6610000Y-3850000I-40000J0D01*
G01*
X6610000Y-3850000D02*
G75*
G02*
X6690000Y-3850000I40000J0D01*
G01*
X6596000Y-2455000D02*
X6596000Y-2545000D01*
X6551000Y-2500000D02*
X6641000Y-2500000D01*
X6850000Y-2455000D02*
X6850000Y-2545000D01*
X6805000Y-2500000D02*
X6895000Y-2500000D01*
X2435356Y-2585356D02*
X2435356Y-2514644D01*
X2364644Y-2514644D01*
X2364644Y-2585356D01*
X2435356Y-2585356D01*
X2435356Y-2839356D02*
X2435356Y-2768644D01*
X2364644Y-2768644D01*
X2364644Y-2839356D01*
X2435356Y-2839356D01*
X2435356Y-4535356D02*
X2435356Y-4464644D01*
X2364644Y-4464644D01*
X2364644Y-4535356D01*
X2435356Y-4535356D01*
X2435356Y-4789356D02*
X2435356Y-4718644D01*
X2364644Y-4718644D01*
X2364644Y-4789356D01*
X2435356Y-4789356D01*
X3835356Y-4485356D02*
X3835356Y-4414644D01*
X3764644Y-4414644D01*
X3764644Y-4485356D01*
X3835356Y-4485356D01*
X3835356Y-4739356D02*
X3835356Y-4668644D01*
X3764644Y-4668644D01*
X3764644Y-4739356D01*
X3835356Y-4739356D01*
X4385356Y-4485356D02*
X4385356Y-4414644D01*
X4314644Y-4414644D01*
X4314644Y-4485356D01*
X4385356Y-4485356D01*
X4385356Y-4739356D02*
X4385356Y-4668644D01*
X4314644Y-4668644D01*
X4314644Y-4739356D01*
X4385356Y-4739356D01*
X5527356Y-2535356D02*
X5527356Y-2464644D01*
X5456644Y-2464644D01*
X5456644Y-2535356D01*
X5527356Y-2535356D01*
X5781356Y-2535356D02*
X5781356Y-2464644D01*
X5710644Y-2464644D01*
X5710644Y-2535356D01*
X5781356Y-2535356D01*
X6035356Y-2535356D02*
X6035356Y-2464644D01*
X5964644Y-2464644D01*
X5964644Y-2535356D01*
X6035356Y-2535356D01*
D11*
X2253277Y-5418984D02*
X2253277Y-5218984D01*
X2253277Y-5218984D02*
X2300896Y-5218984D01*
X2300896Y-5218984D02*
X2329467Y-5228508D01*
X2329467Y-5228508D02*
X2348515Y-5247555D01*
X2348515Y-5247555D02*
X2358039Y-5266603D01*
X2358039Y-5266603D02*
X2367563Y-5304698D01*
X2367563Y-5304698D02*
X2367563Y-5333270D01*
X2367563Y-5333270D02*
X2358039Y-5371365D01*
X2358039Y-5371365D02*
X2348515Y-5390412D01*
X2348515Y-5390412D02*
X2329467Y-5409460D01*
X2329467Y-5409460D02*
X2300896Y-5418984D01*
X2300896Y-5418984D02*
X2253277Y-5418984D01*
X2453277Y-5418984D02*
X2453277Y-5285650D01*
X2453277Y-5323746D02*
X2462801Y-5304698D01*
X2462801Y-5304698D02*
X2472324Y-5295174D01*
X2472324Y-5295174D02*
X2491372Y-5285650D01*
X2491372Y-5285650D02*
X2510420Y-5285650D01*
X2577086Y-5418984D02*
X2577086Y-5285650D01*
X2577086Y-5218984D02*
X2567563Y-5228508D01*
X2567563Y-5228508D02*
X2577086Y-5238031D01*
X2577086Y-5238031D02*
X2586610Y-5228508D01*
X2586610Y-5228508D02*
X2577086Y-5218984D01*
X2577086Y-5218984D02*
X2577086Y-5238031D01*
X2700896Y-5418984D02*
X2681848Y-5409460D01*
X2681848Y-5409460D02*
X2672324Y-5390412D01*
X2672324Y-5390412D02*
X2672324Y-5218984D01*
X2805658Y-5418984D02*
X2786610Y-5409460D01*
X2786610Y-5409460D02*
X2777086Y-5390412D01*
X2777086Y-5390412D02*
X2777086Y-5218984D01*
X3034229Y-5418984D02*
X3034229Y-5218984D01*
X3034229Y-5218984D02*
X3100896Y-5361841D01*
X3100896Y-5361841D02*
X3167562Y-5218984D01*
X3167562Y-5218984D02*
X3167562Y-5418984D01*
X3348515Y-5418984D02*
X3348515Y-5314222D01*
X3348515Y-5314222D02*
X3338991Y-5295174D01*
X3338991Y-5295174D02*
X3319943Y-5285650D01*
X3319943Y-5285650D02*
X3281848Y-5285650D01*
X3281848Y-5285650D02*
X3262801Y-5295174D01*
X3348515Y-5409460D02*
X3329467Y-5418984D01*
X3329467Y-5418984D02*
X3281848Y-5418984D01*
X3281848Y-5418984D02*
X3262801Y-5409460D01*
X3262801Y-5409460D02*
X3253277Y-5390412D01*
X3253277Y-5390412D02*
X3253277Y-5371365D01*
X3253277Y-5371365D02*
X3262801Y-5352317D01*
X3262801Y-5352317D02*
X3281848Y-5342793D01*
X3281848Y-5342793D02*
X3329467Y-5342793D01*
X3329467Y-5342793D02*
X3348515Y-5333270D01*
X3443753Y-5285650D02*
X3443753Y-5485650D01*
X3443753Y-5295174D02*
X3462801Y-5285650D01*
X3462801Y-5285650D02*
X3500896Y-5285650D01*
X3500896Y-5285650D02*
X3519943Y-5295174D01*
X3519943Y-5295174D02*
X3529467Y-5304698D01*
X3529467Y-5304698D02*
X3538991Y-5323746D01*
X3538991Y-5323746D02*
X3538991Y-5380889D01*
X3538991Y-5380889D02*
X3529467Y-5399936D01*
X3529467Y-5399936D02*
X3519943Y-5409460D01*
X3519943Y-5409460D02*
X3500896Y-5418984D01*
X3500896Y-5418984D02*
X3462801Y-5418984D01*
X3462801Y-5418984D02*
X3443753Y-5409460D01*
X3624705Y-5399936D02*
X3634229Y-5409460D01*
X3634229Y-5409460D02*
X3624705Y-5418984D01*
X3624705Y-5418984D02*
X3615182Y-5409460D01*
X3615182Y-5409460D02*
X3624705Y-5399936D01*
X3624705Y-5399936D02*
X3624705Y-5418984D01*
X3624705Y-5295174D02*
X3634229Y-5304698D01*
X3634229Y-5304698D02*
X3624705Y-5314222D01*
X3624705Y-5314222D02*
X3615182Y-5304698D01*
X3615182Y-5304698D02*
X3624705Y-5295174D01*
X3624705Y-5295174D02*
X3624705Y-5314222D01*
D12*
X1917500Y-5710000D02*
X1992500Y-5785000D01*
X1992500Y-5710000D02*
X1917500Y-5785000D01*
D11*
X2291372Y-5638984D02*
X2310420Y-5638984D01*
X2310420Y-5638984D02*
X2329467Y-5648508D01*
X2329467Y-5648508D02*
X2338991Y-5658031D01*
X2338991Y-5658031D02*
X2348515Y-5677079D01*
X2348515Y-5677079D02*
X2358039Y-5715174D01*
X2358039Y-5715174D02*
X2358039Y-5762793D01*
X2358039Y-5762793D02*
X2348515Y-5800888D01*
X2348515Y-5800888D02*
X2338991Y-5819936D01*
X2338991Y-5819936D02*
X2329467Y-5829460D01*
X2329467Y-5829460D02*
X2310420Y-5838984D01*
X2310420Y-5838984D02*
X2291372Y-5838984D01*
X2291372Y-5838984D02*
X2272324Y-5829460D01*
X2272324Y-5829460D02*
X2262801Y-5819936D01*
X2262801Y-5819936D02*
X2253277Y-5800888D01*
X2253277Y-5800888D02*
X2243753Y-5762793D01*
X2243753Y-5762793D02*
X2243753Y-5715174D01*
X2243753Y-5715174D02*
X2253277Y-5677079D01*
X2253277Y-5677079D02*
X2262801Y-5658031D01*
X2262801Y-5658031D02*
X2272324Y-5648508D01*
X2272324Y-5648508D02*
X2291372Y-5638984D01*
X2443753Y-5819936D02*
X2453277Y-5829460D01*
X2453277Y-5829460D02*
X2443753Y-5838984D01*
X2443753Y-5838984D02*
X2434229Y-5829460D01*
X2434229Y-5829460D02*
X2443753Y-5819936D01*
X2443753Y-5819936D02*
X2443753Y-5838984D01*
X2519944Y-5638984D02*
X2653277Y-5638984D01*
X2653277Y-5638984D02*
X2567563Y-5838984D01*
X2824705Y-5638984D02*
X2729467Y-5638984D01*
X2729467Y-5638984D02*
X2719944Y-5734222D01*
X2719944Y-5734222D02*
X2729467Y-5724698D01*
X2729467Y-5724698D02*
X2748515Y-5715174D01*
X2748515Y-5715174D02*
X2796134Y-5715174D01*
X2796134Y-5715174D02*
X2815182Y-5724698D01*
X2815182Y-5724698D02*
X2824705Y-5734222D01*
X2824705Y-5734222D02*
X2834229Y-5753269D01*
X2834229Y-5753269D02*
X2834229Y-5800888D01*
X2834229Y-5800888D02*
X2824705Y-5819936D01*
X2824705Y-5819936D02*
X2815182Y-5829460D01*
X2815182Y-5829460D02*
X2796134Y-5838984D01*
X2796134Y-5838984D02*
X2748515Y-5838984D01*
X2748515Y-5838984D02*
X2729467Y-5829460D01*
X2729467Y-5829460D02*
X2719944Y-5819936D01*
X2958039Y-5638984D02*
X2977086Y-5638984D01*
X2977086Y-5638984D02*
X2996134Y-5648508D01*
X2996134Y-5648508D02*
X3005658Y-5658031D01*
X3005658Y-5658031D02*
X3015182Y-5677079D01*
X3015182Y-5677079D02*
X3024705Y-5715174D01*
X3024705Y-5715174D02*
X3024705Y-5762793D01*
X3024705Y-5762793D02*
X3015182Y-5800888D01*
X3015182Y-5800888D02*
X3005658Y-5819936D01*
X3005658Y-5819936D02*
X2996134Y-5829460D01*
X2996134Y-5829460D02*
X2977086Y-5838984D01*
X2977086Y-5838984D02*
X2958039Y-5838984D01*
X2958039Y-5838984D02*
X2938991Y-5829460D01*
X2938991Y-5829460D02*
X2929467Y-5819936D01*
X2929467Y-5819936D02*
X2919943Y-5800888D01*
X2919943Y-5800888D02*
X2910420Y-5762793D01*
X2910420Y-5762793D02*
X2910420Y-5715174D01*
X2910420Y-5715174D02*
X2919943Y-5677079D01*
X2919943Y-5677079D02*
X2929467Y-5658031D01*
X2929467Y-5658031D02*
X2938991Y-5648508D01*
X2938991Y-5648508D02*
X2958039Y-5638984D01*
X3110420Y-5838984D02*
X3110420Y-5705650D01*
X3110420Y-5724698D02*
X3119943Y-5715174D01*
X3119943Y-5715174D02*
X3138991Y-5705650D01*
X3138991Y-5705650D02*
X3167563Y-5705650D01*
X3167563Y-5705650D02*
X3186610Y-5715174D01*
X3186610Y-5715174D02*
X3196134Y-5734222D01*
X3196134Y-5734222D02*
X3196134Y-5838984D01*
X3196134Y-5734222D02*
X3205658Y-5715174D01*
X3205658Y-5715174D02*
X3224705Y-5705650D01*
X3224705Y-5705650D02*
X3253277Y-5705650D01*
X3253277Y-5705650D02*
X3272324Y-5715174D01*
X3272324Y-5715174D02*
X3281848Y-5734222D01*
X3281848Y-5734222D02*
X3281848Y-5838984D01*
X3377086Y-5838984D02*
X3377086Y-5705650D01*
X3377086Y-5724698D02*
X3386610Y-5715174D01*
X3386610Y-5715174D02*
X3405658Y-5705650D01*
X3405658Y-5705650D02*
X3434229Y-5705650D01*
X3434229Y-5705650D02*
X3453277Y-5715174D01*
X3453277Y-5715174D02*
X3462801Y-5734222D01*
X3462801Y-5734222D02*
X3462801Y-5838984D01*
X3462801Y-5734222D02*
X3472324Y-5715174D01*
X3472324Y-5715174D02*
X3491372Y-5705650D01*
X3491372Y-5705650D02*
X3519943Y-5705650D01*
X3519943Y-5705650D02*
X3538991Y-5715174D01*
X3538991Y-5715174D02*
X3548515Y-5734222D01*
X3548515Y-5734222D02*
X3548515Y-5838984D01*
X3938991Y-5629460D02*
X3767563Y-5886603D01*
X4196134Y-5638984D02*
X4215182Y-5638984D01*
X4215182Y-5638984D02*
X4234229Y-5648508D01*
X4234229Y-5648508D02*
X4243753Y-5658031D01*
X4243753Y-5658031D02*
X4253277Y-5677079D01*
X4253277Y-5677079D02*
X4262801Y-5715174D01*
X4262801Y-5715174D02*
X4262801Y-5762793D01*
X4262801Y-5762793D02*
X4253277Y-5800888D01*
X4253277Y-5800888D02*
X4243753Y-5819936D01*
X4243753Y-5819936D02*
X4234229Y-5829460D01*
X4234229Y-5829460D02*
X4215182Y-5838984D01*
X4215182Y-5838984D02*
X4196134Y-5838984D01*
X4196134Y-5838984D02*
X4177086Y-5829460D01*
X4177086Y-5829460D02*
X4167563Y-5819936D01*
X4167563Y-5819936D02*
X4158039Y-5800888D01*
X4158039Y-5800888D02*
X4148515Y-5762793D01*
X4148515Y-5762793D02*
X4148515Y-5715174D01*
X4148515Y-5715174D02*
X4158039Y-5677079D01*
X4158039Y-5677079D02*
X4167563Y-5658031D01*
X4167563Y-5658031D02*
X4177086Y-5648508D01*
X4177086Y-5648508D02*
X4196134Y-5638984D01*
X4348515Y-5819936D02*
X4358039Y-5829460D01*
X4358039Y-5829460D02*
X4348515Y-5838984D01*
X4348515Y-5838984D02*
X4338991Y-5829460D01*
X4338991Y-5829460D02*
X4348515Y-5819936D01*
X4348515Y-5819936D02*
X4348515Y-5838984D01*
X4481848Y-5638984D02*
X4500896Y-5638984D01*
X4500896Y-5638984D02*
X4519944Y-5648508D01*
X4519944Y-5648508D02*
X4529468Y-5658031D01*
X4529468Y-5658031D02*
X4538991Y-5677079D01*
X4538991Y-5677079D02*
X4548515Y-5715174D01*
X4548515Y-5715174D02*
X4548515Y-5762793D01*
X4548515Y-5762793D02*
X4538991Y-5800888D01*
X4538991Y-5800888D02*
X4529468Y-5819936D01*
X4529468Y-5819936D02*
X4519944Y-5829460D01*
X4519944Y-5829460D02*
X4500896Y-5838984D01*
X4500896Y-5838984D02*
X4481848Y-5838984D01*
X4481848Y-5838984D02*
X4462801Y-5829460D01*
X4462801Y-5829460D02*
X4453277Y-5819936D01*
X4453277Y-5819936D02*
X4443753Y-5800888D01*
X4443753Y-5800888D02*
X4434229Y-5762793D01*
X4434229Y-5762793D02*
X4434229Y-5715174D01*
X4434229Y-5715174D02*
X4443753Y-5677079D01*
X4443753Y-5677079D02*
X4453277Y-5658031D01*
X4453277Y-5658031D02*
X4462801Y-5648508D01*
X4462801Y-5648508D02*
X4481848Y-5638984D01*
X4624706Y-5658031D02*
X4634229Y-5648508D01*
X4634229Y-5648508D02*
X4653277Y-5638984D01*
X4653277Y-5638984D02*
X4700896Y-5638984D01*
X4700896Y-5638984D02*
X4719944Y-5648508D01*
X4719944Y-5648508D02*
X4729468Y-5658031D01*
X4729468Y-5658031D02*
X4738991Y-5677079D01*
X4738991Y-5677079D02*
X4738991Y-5696127D01*
X4738991Y-5696127D02*
X4729468Y-5724698D01*
X4729468Y-5724698D02*
X4615182Y-5838984D01*
X4615182Y-5838984D02*
X4738991Y-5838984D01*
X4834229Y-5838984D02*
X4872325Y-5838984D01*
X4872325Y-5838984D02*
X4891372Y-5829460D01*
X4891372Y-5829460D02*
X4900896Y-5819936D01*
X4900896Y-5819936D02*
X4919944Y-5791365D01*
X4919944Y-5791365D02*
X4929468Y-5753269D01*
X4929468Y-5753269D02*
X4929468Y-5677079D01*
X4929468Y-5677079D02*
X4919944Y-5658031D01*
X4919944Y-5658031D02*
X4910420Y-5648508D01*
X4910420Y-5648508D02*
X4891372Y-5638984D01*
X4891372Y-5638984D02*
X4853277Y-5638984D01*
X4853277Y-5638984D02*
X4834229Y-5648508D01*
X4834229Y-5648508D02*
X4824706Y-5658031D01*
X4824706Y-5658031D02*
X4815182Y-5677079D01*
X4815182Y-5677079D02*
X4815182Y-5724698D01*
X4815182Y-5724698D02*
X4824706Y-5743746D01*
X4824706Y-5743746D02*
X4834229Y-5753269D01*
X4834229Y-5753269D02*
X4853277Y-5762793D01*
X4853277Y-5762793D02*
X4891372Y-5762793D01*
X4891372Y-5762793D02*
X4910420Y-5753269D01*
X4910420Y-5753269D02*
X4919944Y-5743746D01*
X4919944Y-5743746D02*
X4929468Y-5724698D01*
X5110420Y-5638984D02*
X5015182Y-5638984D01*
X5015182Y-5638984D02*
X5005658Y-5734222D01*
X5005658Y-5734222D02*
X5015182Y-5724698D01*
X5015182Y-5724698D02*
X5034229Y-5715174D01*
X5034229Y-5715174D02*
X5081849Y-5715174D01*
X5081849Y-5715174D02*
X5100896Y-5724698D01*
X5100896Y-5724698D02*
X5110420Y-5734222D01*
X5110420Y-5734222D02*
X5119944Y-5753269D01*
X5119944Y-5753269D02*
X5119944Y-5800888D01*
X5119944Y-5800888D02*
X5110420Y-5819936D01*
X5110420Y-5819936D02*
X5100896Y-5829460D01*
X5100896Y-5829460D02*
X5081849Y-5838984D01*
X5081849Y-5838984D02*
X5034229Y-5838984D01*
X5034229Y-5838984D02*
X5015182Y-5829460D01*
X5015182Y-5829460D02*
X5005658Y-5819936D01*
X5196134Y-5638984D02*
X5196134Y-5677079D01*
X5272325Y-5638984D02*
X5272325Y-5677079D01*
X5567563Y-5915174D02*
X5558039Y-5905650D01*
X5558039Y-5905650D02*
X5538991Y-5877079D01*
X5538991Y-5877079D02*
X5529468Y-5858031D01*
X5529468Y-5858031D02*
X5519944Y-5829460D01*
X5519944Y-5829460D02*
X5510420Y-5781841D01*
X5510420Y-5781841D02*
X5510420Y-5743746D01*
X5510420Y-5743746D02*
X5519944Y-5696127D01*
X5519944Y-5696127D02*
X5529468Y-5667555D01*
X5529468Y-5667555D02*
X5538991Y-5648508D01*
X5538991Y-5648508D02*
X5558039Y-5619936D01*
X5558039Y-5619936D02*
X5567563Y-5610412D01*
X5729468Y-5638984D02*
X5691372Y-5638984D01*
X5691372Y-5638984D02*
X5672325Y-5648508D01*
X5672325Y-5648508D02*
X5662801Y-5658031D01*
X5662801Y-5658031D02*
X5643753Y-5686603D01*
X5643753Y-5686603D02*
X5634229Y-5724698D01*
X5634229Y-5724698D02*
X5634229Y-5800888D01*
X5634229Y-5800888D02*
X5643753Y-5819936D01*
X5643753Y-5819936D02*
X5653277Y-5829460D01*
X5653277Y-5829460D02*
X5672325Y-5838984D01*
X5672325Y-5838984D02*
X5710420Y-5838984D01*
X5710420Y-5838984D02*
X5729468Y-5829460D01*
X5729468Y-5829460D02*
X5738991Y-5819936D01*
X5738991Y-5819936D02*
X5748515Y-5800888D01*
X5748515Y-5800888D02*
X5748515Y-5753269D01*
X5748515Y-5753269D02*
X5738991Y-5734222D01*
X5738991Y-5734222D02*
X5729468Y-5724698D01*
X5729468Y-5724698D02*
X5710420Y-5715174D01*
X5710420Y-5715174D02*
X5672325Y-5715174D01*
X5672325Y-5715174D02*
X5653277Y-5724698D01*
X5653277Y-5724698D02*
X5643753Y-5734222D01*
X5643753Y-5734222D02*
X5634229Y-5753269D01*
X5986610Y-5838984D02*
X5986610Y-5638984D01*
X6072325Y-5838984D02*
X6072325Y-5734222D01*
X6072325Y-5734222D02*
X6062801Y-5715174D01*
X6062801Y-5715174D02*
X6043753Y-5705650D01*
X6043753Y-5705650D02*
X6015182Y-5705650D01*
X6015182Y-5705650D02*
X5996134Y-5715174D01*
X5996134Y-5715174D02*
X5986610Y-5724698D01*
X6196134Y-5838984D02*
X6177087Y-5829460D01*
X6177087Y-5829460D02*
X6167563Y-5819936D01*
X6167563Y-5819936D02*
X6158039Y-5800888D01*
X6158039Y-5800888D02*
X6158039Y-5743746D01*
X6158039Y-5743746D02*
X6167563Y-5724698D01*
X6167563Y-5724698D02*
X6177087Y-5715174D01*
X6177087Y-5715174D02*
X6196134Y-5705650D01*
X6196134Y-5705650D02*
X6224706Y-5705650D01*
X6224706Y-5705650D02*
X6243753Y-5715174D01*
X6243753Y-5715174D02*
X6253277Y-5724698D01*
X6253277Y-5724698D02*
X6262801Y-5743746D01*
X6262801Y-5743746D02*
X6262801Y-5800888D01*
X6262801Y-5800888D02*
X6253277Y-5819936D01*
X6253277Y-5819936D02*
X6243753Y-5829460D01*
X6243753Y-5829460D02*
X6224706Y-5838984D01*
X6224706Y-5838984D02*
X6196134Y-5838984D01*
X6377087Y-5838984D02*
X6358039Y-5829460D01*
X6358039Y-5829460D02*
X6348515Y-5810412D01*
X6348515Y-5810412D02*
X6348515Y-5638984D01*
X6529468Y-5829460D02*
X6510420Y-5838984D01*
X6510420Y-5838984D02*
X6472325Y-5838984D01*
X6472325Y-5838984D02*
X6453277Y-5829460D01*
X6453277Y-5829460D02*
X6443753Y-5810412D01*
X6443753Y-5810412D02*
X6443753Y-5734222D01*
X6443753Y-5734222D02*
X6453277Y-5715174D01*
X6453277Y-5715174D02*
X6472325Y-5705650D01*
X6472325Y-5705650D02*
X6510420Y-5705650D01*
X6510420Y-5705650D02*
X6529468Y-5715174D01*
X6529468Y-5715174D02*
X6538991Y-5734222D01*
X6538991Y-5734222D02*
X6538991Y-5753269D01*
X6538991Y-5753269D02*
X6443753Y-5772317D01*
X6615182Y-5829460D02*
X6634230Y-5838984D01*
X6634230Y-5838984D02*
X6672325Y-5838984D01*
X6672325Y-5838984D02*
X6691372Y-5829460D01*
X6691372Y-5829460D02*
X6700896Y-5810412D01*
X6700896Y-5810412D02*
X6700896Y-5800888D01*
X6700896Y-5800888D02*
X6691372Y-5781841D01*
X6691372Y-5781841D02*
X6672325Y-5772317D01*
X6672325Y-5772317D02*
X6643753Y-5772317D01*
X6643753Y-5772317D02*
X6624706Y-5762793D01*
X6624706Y-5762793D02*
X6615182Y-5743746D01*
X6615182Y-5743746D02*
X6615182Y-5734222D01*
X6615182Y-5734222D02*
X6624706Y-5715174D01*
X6624706Y-5715174D02*
X6643753Y-5705650D01*
X6643753Y-5705650D02*
X6672325Y-5705650D01*
X6672325Y-5705650D02*
X6691372Y-5715174D01*
X6767563Y-5915174D02*
X6777087Y-5905650D01*
X6777087Y-5905650D02*
X6796134Y-5877079D01*
X6796134Y-5877079D02*
X6805658Y-5858031D01*
X6805658Y-5858031D02*
X6815182Y-5829460D01*
X6815182Y-5829460D02*
X6824706Y-5781841D01*
X6824706Y-5781841D02*
X6824706Y-5743746D01*
X6824706Y-5743746D02*
X6815182Y-5696127D01*
X6815182Y-5696127D02*
X6805658Y-5667555D01*
X6805658Y-5667555D02*
X6796134Y-5648508D01*
X6796134Y-5648508D02*
X6777087Y-5619936D01*
X6777087Y-5619936D02*
X6767563Y-5610412D01*
D12*
X1992500Y-6011500D02*
G75*
G02*
X1912500Y-6011500I-40000J0D01*
G01*
X1912500Y-6011500D02*
G75*
G02*
X1992500Y-6011500I40000J0D01*
G01*
D11*
X2291372Y-5902984D02*
X2310420Y-5902984D01*
X2310420Y-5902984D02*
X2329467Y-5912508D01*
X2329467Y-5912508D02*
X2338991Y-5922031D01*
X2338991Y-5922031D02*
X2348515Y-5941079D01*
X2348515Y-5941079D02*
X2358039Y-5979174D01*
X2358039Y-5979174D02*
X2358039Y-6026793D01*
X2358039Y-6026793D02*
X2348515Y-6064888D01*
X2348515Y-6064888D02*
X2338991Y-6083936D01*
X2338991Y-6083936D02*
X2329467Y-6093460D01*
X2329467Y-6093460D02*
X2310420Y-6102984D01*
X2310420Y-6102984D02*
X2291372Y-6102984D01*
X2291372Y-6102984D02*
X2272324Y-6093460D01*
X2272324Y-6093460D02*
X2262801Y-6083936D01*
X2262801Y-6083936D02*
X2253277Y-6064888D01*
X2253277Y-6064888D02*
X2243753Y-6026793D01*
X2243753Y-6026793D02*
X2243753Y-5979174D01*
X2243753Y-5979174D02*
X2253277Y-5941079D01*
X2253277Y-5941079D02*
X2262801Y-5922031D01*
X2262801Y-5922031D02*
X2272324Y-5912508D01*
X2272324Y-5912508D02*
X2291372Y-5902984D01*
X2443753Y-6083936D02*
X2453277Y-6093460D01*
X2453277Y-6093460D02*
X2443753Y-6102984D01*
X2443753Y-6102984D02*
X2434229Y-6093460D01*
X2434229Y-6093460D02*
X2443753Y-6083936D01*
X2443753Y-6083936D02*
X2443753Y-6102984D01*
X2567563Y-5988698D02*
X2548515Y-5979174D01*
X2548515Y-5979174D02*
X2538991Y-5969650D01*
X2538991Y-5969650D02*
X2529467Y-5950603D01*
X2529467Y-5950603D02*
X2529467Y-5941079D01*
X2529467Y-5941079D02*
X2538991Y-5922031D01*
X2538991Y-5922031D02*
X2548515Y-5912508D01*
X2548515Y-5912508D02*
X2567563Y-5902984D01*
X2567563Y-5902984D02*
X2605658Y-5902984D01*
X2605658Y-5902984D02*
X2624705Y-5912508D01*
X2624705Y-5912508D02*
X2634229Y-5922031D01*
X2634229Y-5922031D02*
X2643753Y-5941079D01*
X2643753Y-5941079D02*
X2643753Y-5950603D01*
X2643753Y-5950603D02*
X2634229Y-5969650D01*
X2634229Y-5969650D02*
X2624705Y-5979174D01*
X2624705Y-5979174D02*
X2605658Y-5988698D01*
X2605658Y-5988698D02*
X2567563Y-5988698D01*
X2567563Y-5988698D02*
X2548515Y-5998222D01*
X2548515Y-5998222D02*
X2538991Y-6007746D01*
X2538991Y-6007746D02*
X2529467Y-6026793D01*
X2529467Y-6026793D02*
X2529467Y-6064888D01*
X2529467Y-6064888D02*
X2538991Y-6083936D01*
X2538991Y-6083936D02*
X2548515Y-6093460D01*
X2548515Y-6093460D02*
X2567563Y-6102984D01*
X2567563Y-6102984D02*
X2605658Y-6102984D01*
X2605658Y-6102984D02*
X2624705Y-6093460D01*
X2624705Y-6093460D02*
X2634229Y-6083936D01*
X2634229Y-6083936D02*
X2643753Y-6064888D01*
X2643753Y-6064888D02*
X2643753Y-6026793D01*
X2643753Y-6026793D02*
X2634229Y-6007746D01*
X2634229Y-6007746D02*
X2624705Y-5998222D01*
X2624705Y-5998222D02*
X2605658Y-5988698D01*
X2767563Y-5902984D02*
X2786610Y-5902984D01*
X2786610Y-5902984D02*
X2805658Y-5912508D01*
X2805658Y-5912508D02*
X2815182Y-5922031D01*
X2815182Y-5922031D02*
X2824705Y-5941079D01*
X2824705Y-5941079D02*
X2834229Y-5979174D01*
X2834229Y-5979174D02*
X2834229Y-6026793D01*
X2834229Y-6026793D02*
X2824705Y-6064888D01*
X2824705Y-6064888D02*
X2815182Y-6083936D01*
X2815182Y-6083936D02*
X2805658Y-6093460D01*
X2805658Y-6093460D02*
X2786610Y-6102984D01*
X2786610Y-6102984D02*
X2767563Y-6102984D01*
X2767563Y-6102984D02*
X2748515Y-6093460D01*
X2748515Y-6093460D02*
X2738991Y-6083936D01*
X2738991Y-6083936D02*
X2729467Y-6064888D01*
X2729467Y-6064888D02*
X2719944Y-6026793D01*
X2719944Y-6026793D02*
X2719944Y-5979174D01*
X2719944Y-5979174D02*
X2729467Y-5941079D01*
X2729467Y-5941079D02*
X2738991Y-5922031D01*
X2738991Y-5922031D02*
X2748515Y-5912508D01*
X2748515Y-5912508D02*
X2767563Y-5902984D01*
X2958039Y-5902984D02*
X2977086Y-5902984D01*
X2977086Y-5902984D02*
X2996134Y-5912508D01*
X2996134Y-5912508D02*
X3005658Y-5922031D01*
X3005658Y-5922031D02*
X3015182Y-5941079D01*
X3015182Y-5941079D02*
X3024705Y-5979174D01*
X3024705Y-5979174D02*
X3024705Y-6026793D01*
X3024705Y-6026793D02*
X3015182Y-6064888D01*
X3015182Y-6064888D02*
X3005658Y-6083936D01*
X3005658Y-6083936D02*
X2996134Y-6093460D01*
X2996134Y-6093460D02*
X2977086Y-6102984D01*
X2977086Y-6102984D02*
X2958039Y-6102984D01*
X2958039Y-6102984D02*
X2938991Y-6093460D01*
X2938991Y-6093460D02*
X2929467Y-6083936D01*
X2929467Y-6083936D02*
X2919943Y-6064888D01*
X2919943Y-6064888D02*
X2910420Y-6026793D01*
X2910420Y-6026793D02*
X2910420Y-5979174D01*
X2910420Y-5979174D02*
X2919943Y-5941079D01*
X2919943Y-5941079D02*
X2929467Y-5922031D01*
X2929467Y-5922031D02*
X2938991Y-5912508D01*
X2938991Y-5912508D02*
X2958039Y-5902984D01*
X3110420Y-6102984D02*
X3110420Y-5969650D01*
X3110420Y-5988698D02*
X3119943Y-5979174D01*
X3119943Y-5979174D02*
X3138991Y-5969650D01*
X3138991Y-5969650D02*
X3167563Y-5969650D01*
X3167563Y-5969650D02*
X3186610Y-5979174D01*
X3186610Y-5979174D02*
X3196134Y-5998222D01*
X3196134Y-5998222D02*
X3196134Y-6102984D01*
X3196134Y-5998222D02*
X3205658Y-5979174D01*
X3205658Y-5979174D02*
X3224705Y-5969650D01*
X3224705Y-5969650D02*
X3253277Y-5969650D01*
X3253277Y-5969650D02*
X3272324Y-5979174D01*
X3272324Y-5979174D02*
X3281848Y-5998222D01*
X3281848Y-5998222D02*
X3281848Y-6102984D01*
X3377086Y-6102984D02*
X3377086Y-5969650D01*
X3377086Y-5988698D02*
X3386610Y-5979174D01*
X3386610Y-5979174D02*
X3405658Y-5969650D01*
X3405658Y-5969650D02*
X3434229Y-5969650D01*
X3434229Y-5969650D02*
X3453277Y-5979174D01*
X3453277Y-5979174D02*
X3462801Y-5998222D01*
X3462801Y-5998222D02*
X3462801Y-6102984D01*
X3462801Y-5998222D02*
X3472324Y-5979174D01*
X3472324Y-5979174D02*
X3491372Y-5969650D01*
X3491372Y-5969650D02*
X3519943Y-5969650D01*
X3519943Y-5969650D02*
X3538991Y-5979174D01*
X3538991Y-5979174D02*
X3548515Y-5998222D01*
X3548515Y-5998222D02*
X3548515Y-6102984D01*
X3938991Y-5893460D02*
X3767563Y-6150603D01*
X4196134Y-5902984D02*
X4215182Y-5902984D01*
X4215182Y-5902984D02*
X4234229Y-5912508D01*
X4234229Y-5912508D02*
X4243753Y-5922031D01*
X4243753Y-5922031D02*
X4253277Y-5941079D01*
X4253277Y-5941079D02*
X4262801Y-5979174D01*
X4262801Y-5979174D02*
X4262801Y-6026793D01*
X4262801Y-6026793D02*
X4253277Y-6064888D01*
X4253277Y-6064888D02*
X4243753Y-6083936D01*
X4243753Y-6083936D02*
X4234229Y-6093460D01*
X4234229Y-6093460D02*
X4215182Y-6102984D01*
X4215182Y-6102984D02*
X4196134Y-6102984D01*
X4196134Y-6102984D02*
X4177086Y-6093460D01*
X4177086Y-6093460D02*
X4167563Y-6083936D01*
X4167563Y-6083936D02*
X4158039Y-6064888D01*
X4158039Y-6064888D02*
X4148515Y-6026793D01*
X4148515Y-6026793D02*
X4148515Y-5979174D01*
X4148515Y-5979174D02*
X4158039Y-5941079D01*
X4158039Y-5941079D02*
X4167563Y-5922031D01*
X4167563Y-5922031D02*
X4177086Y-5912508D01*
X4177086Y-5912508D02*
X4196134Y-5902984D01*
X4348515Y-6083936D02*
X4358039Y-6093460D01*
X4358039Y-6093460D02*
X4348515Y-6102984D01*
X4348515Y-6102984D02*
X4338991Y-6093460D01*
X4338991Y-6093460D02*
X4348515Y-6083936D01*
X4348515Y-6083936D02*
X4348515Y-6102984D01*
X4481848Y-5902984D02*
X4500896Y-5902984D01*
X4500896Y-5902984D02*
X4519944Y-5912508D01*
X4519944Y-5912508D02*
X4529468Y-5922031D01*
X4529468Y-5922031D02*
X4538991Y-5941079D01*
X4538991Y-5941079D02*
X4548515Y-5979174D01*
X4548515Y-5979174D02*
X4548515Y-6026793D01*
X4548515Y-6026793D02*
X4538991Y-6064888D01*
X4538991Y-6064888D02*
X4529468Y-6083936D01*
X4529468Y-6083936D02*
X4519944Y-6093460D01*
X4519944Y-6093460D02*
X4500896Y-6102984D01*
X4500896Y-6102984D02*
X4481848Y-6102984D01*
X4481848Y-6102984D02*
X4462801Y-6093460D01*
X4462801Y-6093460D02*
X4453277Y-6083936D01*
X4453277Y-6083936D02*
X4443753Y-6064888D01*
X4443753Y-6064888D02*
X4434229Y-6026793D01*
X4434229Y-6026793D02*
X4434229Y-5979174D01*
X4434229Y-5979174D02*
X4443753Y-5941079D01*
X4443753Y-5941079D02*
X4453277Y-5922031D01*
X4453277Y-5922031D02*
X4462801Y-5912508D01*
X4462801Y-5912508D02*
X4481848Y-5902984D01*
X4615182Y-5902984D02*
X4738991Y-5902984D01*
X4738991Y-5902984D02*
X4672325Y-5979174D01*
X4672325Y-5979174D02*
X4700896Y-5979174D01*
X4700896Y-5979174D02*
X4719944Y-5988698D01*
X4719944Y-5988698D02*
X4729468Y-5998222D01*
X4729468Y-5998222D02*
X4738991Y-6017269D01*
X4738991Y-6017269D02*
X4738991Y-6064888D01*
X4738991Y-6064888D02*
X4729468Y-6083936D01*
X4729468Y-6083936D02*
X4719944Y-6093460D01*
X4719944Y-6093460D02*
X4700896Y-6102984D01*
X4700896Y-6102984D02*
X4643753Y-6102984D01*
X4643753Y-6102984D02*
X4624706Y-6093460D01*
X4624706Y-6093460D02*
X4615182Y-6083936D01*
X4929468Y-6102984D02*
X4815182Y-6102984D01*
X4872325Y-6102984D02*
X4872325Y-5902984D01*
X4872325Y-5902984D02*
X4853277Y-5931555D01*
X4853277Y-5931555D02*
X4834229Y-5950603D01*
X4834229Y-5950603D02*
X4815182Y-5960127D01*
X5110420Y-5902984D02*
X5015182Y-5902984D01*
X5015182Y-5902984D02*
X5005658Y-5998222D01*
X5005658Y-5998222D02*
X5015182Y-5988698D01*
X5015182Y-5988698D02*
X5034229Y-5979174D01*
X5034229Y-5979174D02*
X5081849Y-5979174D01*
X5081849Y-5979174D02*
X5100896Y-5988698D01*
X5100896Y-5988698D02*
X5110420Y-5998222D01*
X5110420Y-5998222D02*
X5119944Y-6017269D01*
X5119944Y-6017269D02*
X5119944Y-6064888D01*
X5119944Y-6064888D02*
X5110420Y-6083936D01*
X5110420Y-6083936D02*
X5100896Y-6093460D01*
X5100896Y-6093460D02*
X5081849Y-6102984D01*
X5081849Y-6102984D02*
X5034229Y-6102984D01*
X5034229Y-6102984D02*
X5015182Y-6093460D01*
X5015182Y-6093460D02*
X5005658Y-6083936D01*
X5196134Y-5902984D02*
X5196134Y-5941079D01*
X5272325Y-5902984D02*
X5272325Y-5941079D01*
X5567563Y-6179174D02*
X5558039Y-6169650D01*
X5558039Y-6169650D02*
X5538991Y-6141079D01*
X5538991Y-6141079D02*
X5529468Y-6122031D01*
X5529468Y-6122031D02*
X5519944Y-6093460D01*
X5519944Y-6093460D02*
X5510420Y-6045841D01*
X5510420Y-6045841D02*
X5510420Y-6007746D01*
X5510420Y-6007746D02*
X5519944Y-5960127D01*
X5519944Y-5960127D02*
X5529468Y-5931555D01*
X5529468Y-5931555D02*
X5538991Y-5912508D01*
X5538991Y-5912508D02*
X5558039Y-5883936D01*
X5558039Y-5883936D02*
X5567563Y-5874412D01*
X5634229Y-5922031D02*
X5643753Y-5912508D01*
X5643753Y-5912508D02*
X5662801Y-5902984D01*
X5662801Y-5902984D02*
X5710420Y-5902984D01*
X5710420Y-5902984D02*
X5729468Y-5912508D01*
X5729468Y-5912508D02*
X5738991Y-5922031D01*
X5738991Y-5922031D02*
X5748515Y-5941079D01*
X5748515Y-5941079D02*
X5748515Y-5960127D01*
X5748515Y-5960127D02*
X5738991Y-5988698D01*
X5738991Y-5988698D02*
X5624706Y-6102984D01*
X5624706Y-6102984D02*
X5748515Y-6102984D01*
X5919944Y-5902984D02*
X5881848Y-5902984D01*
X5881848Y-5902984D02*
X5862801Y-5912508D01*
X5862801Y-5912508D02*
X5853277Y-5922031D01*
X5853277Y-5922031D02*
X5834229Y-5950603D01*
X5834229Y-5950603D02*
X5824706Y-5988698D01*
X5824706Y-5988698D02*
X5824706Y-6064888D01*
X5824706Y-6064888D02*
X5834229Y-6083936D01*
X5834229Y-6083936D02*
X5843753Y-6093460D01*
X5843753Y-6093460D02*
X5862801Y-6102984D01*
X5862801Y-6102984D02*
X5900896Y-6102984D01*
X5900896Y-6102984D02*
X5919944Y-6093460D01*
X5919944Y-6093460D02*
X5929468Y-6083936D01*
X5929468Y-6083936D02*
X5938991Y-6064888D01*
X5938991Y-6064888D02*
X5938991Y-6017269D01*
X5938991Y-6017269D02*
X5929468Y-5998222D01*
X5929468Y-5998222D02*
X5919944Y-5988698D01*
X5919944Y-5988698D02*
X5900896Y-5979174D01*
X5900896Y-5979174D02*
X5862801Y-5979174D01*
X5862801Y-5979174D02*
X5843753Y-5988698D01*
X5843753Y-5988698D02*
X5834229Y-5998222D01*
X5834229Y-5998222D02*
X5824706Y-6017269D01*
X6177087Y-6102984D02*
X6177087Y-5902984D01*
X6262801Y-6102984D02*
X6262801Y-5998222D01*
X6262801Y-5998222D02*
X6253277Y-5979174D01*
X6253277Y-5979174D02*
X6234230Y-5969650D01*
X6234230Y-5969650D02*
X6205658Y-5969650D01*
X6205658Y-5969650D02*
X6186610Y-5979174D01*
X6186610Y-5979174D02*
X6177087Y-5988698D01*
X6386610Y-6102984D02*
X6367563Y-6093460D01*
X6367563Y-6093460D02*
X6358039Y-6083936D01*
X6358039Y-6083936D02*
X6348515Y-6064888D01*
X6348515Y-6064888D02*
X6348515Y-6007746D01*
X6348515Y-6007746D02*
X6358039Y-5988698D01*
X6358039Y-5988698D02*
X6367563Y-5979174D01*
X6367563Y-5979174D02*
X6386610Y-5969650D01*
X6386610Y-5969650D02*
X6415182Y-5969650D01*
X6415182Y-5969650D02*
X6434230Y-5979174D01*
X6434230Y-5979174D02*
X6443753Y-5988698D01*
X6443753Y-5988698D02*
X6453277Y-6007746D01*
X6453277Y-6007746D02*
X6453277Y-6064888D01*
X6453277Y-6064888D02*
X6443753Y-6083936D01*
X6443753Y-6083936D02*
X6434230Y-6093460D01*
X6434230Y-6093460D02*
X6415182Y-6102984D01*
X6415182Y-6102984D02*
X6386610Y-6102984D01*
X6567563Y-6102984D02*
X6548515Y-6093460D01*
X6548515Y-6093460D02*
X6538991Y-6074412D01*
X6538991Y-6074412D02*
X6538991Y-5902984D01*
X6719944Y-6093460D02*
X6700896Y-6102984D01*
X6700896Y-6102984D02*
X6662801Y-6102984D01*
X6662801Y-6102984D02*
X6643753Y-6093460D01*
X6643753Y-6093460D02*
X6634230Y-6074412D01*
X6634230Y-6074412D02*
X6634230Y-5998222D01*
X6634230Y-5998222D02*
X6643753Y-5979174D01*
X6643753Y-5979174D02*
X6662801Y-5969650D01*
X6662801Y-5969650D02*
X6700896Y-5969650D01*
X6700896Y-5969650D02*
X6719944Y-5979174D01*
X6719944Y-5979174D02*
X6729468Y-5998222D01*
X6729468Y-5998222D02*
X6729468Y-6017269D01*
X6729468Y-6017269D02*
X6634230Y-6036317D01*
X6805658Y-6093460D02*
X6824706Y-6102984D01*
X6824706Y-6102984D02*
X6862801Y-6102984D01*
X6862801Y-6102984D02*
X6881849Y-6093460D01*
X6881849Y-6093460D02*
X6891372Y-6074412D01*
X6891372Y-6074412D02*
X6891372Y-6064888D01*
X6891372Y-6064888D02*
X6881849Y-6045841D01*
X6881849Y-6045841D02*
X6862801Y-6036317D01*
X6862801Y-6036317D02*
X6834230Y-6036317D01*
X6834230Y-6036317D02*
X6815182Y-6026793D01*
X6815182Y-6026793D02*
X6805658Y-6007746D01*
X6805658Y-6007746D02*
X6805658Y-5998222D01*
X6805658Y-5998222D02*
X6815182Y-5979174D01*
X6815182Y-5979174D02*
X6834230Y-5969650D01*
X6834230Y-5969650D02*
X6862801Y-5969650D01*
X6862801Y-5969650D02*
X6881849Y-5979174D01*
X6958039Y-6179174D02*
X6967563Y-6169650D01*
X6967563Y-6169650D02*
X6986611Y-6141079D01*
X6986611Y-6141079D02*
X6996134Y-6122031D01*
X6996134Y-6122031D02*
X7005658Y-6093460D01*
X7005658Y-6093460D02*
X7015182Y-6045841D01*
X7015182Y-6045841D02*
X7015182Y-6007746D01*
X7015182Y-6007746D02*
X7005658Y-5960127D01*
X7005658Y-5960127D02*
X6996134Y-5931555D01*
X6996134Y-5931555D02*
X6986611Y-5912508D01*
X6986611Y-5912508D02*
X6967563Y-5883936D01*
X6967563Y-5883936D02*
X6958039Y-5874412D01*
D12*
X1947500Y-6230500D02*
X1947500Y-6320500D01*
X1902500Y-6275500D02*
X1992500Y-6275500D01*
D11*
X2291372Y-6166984D02*
X2310420Y-6166984D01*
X2310420Y-6166984D02*
X2329467Y-6176508D01*
X2329467Y-6176508D02*
X2338991Y-6186031D01*
X2338991Y-6186031D02*
X2348515Y-6205079D01*
X2348515Y-6205079D02*
X2358039Y-6243174D01*
X2358039Y-6243174D02*
X2358039Y-6290793D01*
X2358039Y-6290793D02*
X2348515Y-6328888D01*
X2348515Y-6328888D02*
X2338991Y-6347936D01*
X2338991Y-6347936D02*
X2329467Y-6357460D01*
X2329467Y-6357460D02*
X2310420Y-6366984D01*
X2310420Y-6366984D02*
X2291372Y-6366984D01*
X2291372Y-6366984D02*
X2272324Y-6357460D01*
X2272324Y-6357460D02*
X2262801Y-6347936D01*
X2262801Y-6347936D02*
X2253277Y-6328888D01*
X2253277Y-6328888D02*
X2243753Y-6290793D01*
X2243753Y-6290793D02*
X2243753Y-6243174D01*
X2243753Y-6243174D02*
X2253277Y-6205079D01*
X2253277Y-6205079D02*
X2262801Y-6186031D01*
X2262801Y-6186031D02*
X2272324Y-6176508D01*
X2272324Y-6176508D02*
X2291372Y-6166984D01*
X2443753Y-6347936D02*
X2453277Y-6357460D01*
X2453277Y-6357460D02*
X2443753Y-6366984D01*
X2443753Y-6366984D02*
X2434229Y-6357460D01*
X2434229Y-6357460D02*
X2443753Y-6347936D01*
X2443753Y-6347936D02*
X2443753Y-6366984D01*
X2548515Y-6366984D02*
X2586610Y-6366984D01*
X2586610Y-6366984D02*
X2605658Y-6357460D01*
X2605658Y-6357460D02*
X2615182Y-6347936D01*
X2615182Y-6347936D02*
X2634229Y-6319365D01*
X2634229Y-6319365D02*
X2643753Y-6281269D01*
X2643753Y-6281269D02*
X2643753Y-6205079D01*
X2643753Y-6205079D02*
X2634229Y-6186031D01*
X2634229Y-6186031D02*
X2624705Y-6176508D01*
X2624705Y-6176508D02*
X2605658Y-6166984D01*
X2605658Y-6166984D02*
X2567563Y-6166984D01*
X2567563Y-6166984D02*
X2548515Y-6176508D01*
X2548515Y-6176508D02*
X2538991Y-6186031D01*
X2538991Y-6186031D02*
X2529467Y-6205079D01*
X2529467Y-6205079D02*
X2529467Y-6252698D01*
X2529467Y-6252698D02*
X2538991Y-6271746D01*
X2538991Y-6271746D02*
X2548515Y-6281269D01*
X2548515Y-6281269D02*
X2567563Y-6290793D01*
X2567563Y-6290793D02*
X2605658Y-6290793D01*
X2605658Y-6290793D02*
X2624705Y-6281269D01*
X2624705Y-6281269D02*
X2634229Y-6271746D01*
X2634229Y-6271746D02*
X2643753Y-6252698D01*
X2767563Y-6166984D02*
X2786610Y-6166984D01*
X2786610Y-6166984D02*
X2805658Y-6176508D01*
X2805658Y-6176508D02*
X2815182Y-6186031D01*
X2815182Y-6186031D02*
X2824705Y-6205079D01*
X2824705Y-6205079D02*
X2834229Y-6243174D01*
X2834229Y-6243174D02*
X2834229Y-6290793D01*
X2834229Y-6290793D02*
X2824705Y-6328888D01*
X2824705Y-6328888D02*
X2815182Y-6347936D01*
X2815182Y-6347936D02*
X2805658Y-6357460D01*
X2805658Y-6357460D02*
X2786610Y-6366984D01*
X2786610Y-6366984D02*
X2767563Y-6366984D01*
X2767563Y-6366984D02*
X2748515Y-6357460D01*
X2748515Y-6357460D02*
X2738991Y-6347936D01*
X2738991Y-6347936D02*
X2729467Y-6328888D01*
X2729467Y-6328888D02*
X2719944Y-6290793D01*
X2719944Y-6290793D02*
X2719944Y-6243174D01*
X2719944Y-6243174D02*
X2729467Y-6205079D01*
X2729467Y-6205079D02*
X2738991Y-6186031D01*
X2738991Y-6186031D02*
X2748515Y-6176508D01*
X2748515Y-6176508D02*
X2767563Y-6166984D01*
X2958039Y-6166984D02*
X2977086Y-6166984D01*
X2977086Y-6166984D02*
X2996134Y-6176508D01*
X2996134Y-6176508D02*
X3005658Y-6186031D01*
X3005658Y-6186031D02*
X3015182Y-6205079D01*
X3015182Y-6205079D02*
X3024705Y-6243174D01*
X3024705Y-6243174D02*
X3024705Y-6290793D01*
X3024705Y-6290793D02*
X3015182Y-6328888D01*
X3015182Y-6328888D02*
X3005658Y-6347936D01*
X3005658Y-6347936D02*
X2996134Y-6357460D01*
X2996134Y-6357460D02*
X2977086Y-6366984D01*
X2977086Y-6366984D02*
X2958039Y-6366984D01*
X2958039Y-6366984D02*
X2938991Y-6357460D01*
X2938991Y-6357460D02*
X2929467Y-6347936D01*
X2929467Y-6347936D02*
X2919943Y-6328888D01*
X2919943Y-6328888D02*
X2910420Y-6290793D01*
X2910420Y-6290793D02*
X2910420Y-6243174D01*
X2910420Y-6243174D02*
X2919943Y-6205079D01*
X2919943Y-6205079D02*
X2929467Y-6186031D01*
X2929467Y-6186031D02*
X2938991Y-6176508D01*
X2938991Y-6176508D02*
X2958039Y-6166984D01*
X3110420Y-6366984D02*
X3110420Y-6233650D01*
X3110420Y-6252698D02*
X3119943Y-6243174D01*
X3119943Y-6243174D02*
X3138991Y-6233650D01*
X3138991Y-6233650D02*
X3167563Y-6233650D01*
X3167563Y-6233650D02*
X3186610Y-6243174D01*
X3186610Y-6243174D02*
X3196134Y-6262222D01*
X3196134Y-6262222D02*
X3196134Y-6366984D01*
X3196134Y-6262222D02*
X3205658Y-6243174D01*
X3205658Y-6243174D02*
X3224705Y-6233650D01*
X3224705Y-6233650D02*
X3253277Y-6233650D01*
X3253277Y-6233650D02*
X3272324Y-6243174D01*
X3272324Y-6243174D02*
X3281848Y-6262222D01*
X3281848Y-6262222D02*
X3281848Y-6366984D01*
X3377086Y-6366984D02*
X3377086Y-6233650D01*
X3377086Y-6252698D02*
X3386610Y-6243174D01*
X3386610Y-6243174D02*
X3405658Y-6233650D01*
X3405658Y-6233650D02*
X3434229Y-6233650D01*
X3434229Y-6233650D02*
X3453277Y-6243174D01*
X3453277Y-6243174D02*
X3462801Y-6262222D01*
X3462801Y-6262222D02*
X3462801Y-6366984D01*
X3462801Y-6262222D02*
X3472324Y-6243174D01*
X3472324Y-6243174D02*
X3491372Y-6233650D01*
X3491372Y-6233650D02*
X3519943Y-6233650D01*
X3519943Y-6233650D02*
X3538991Y-6243174D01*
X3538991Y-6243174D02*
X3548515Y-6262222D01*
X3548515Y-6262222D02*
X3548515Y-6366984D01*
X3938991Y-6157460D02*
X3767563Y-6414603D01*
X4196134Y-6166984D02*
X4215182Y-6166984D01*
X4215182Y-6166984D02*
X4234229Y-6176508D01*
X4234229Y-6176508D02*
X4243753Y-6186031D01*
X4243753Y-6186031D02*
X4253277Y-6205079D01*
X4253277Y-6205079D02*
X4262801Y-6243174D01*
X4262801Y-6243174D02*
X4262801Y-6290793D01*
X4262801Y-6290793D02*
X4253277Y-6328888D01*
X4253277Y-6328888D02*
X4243753Y-6347936D01*
X4243753Y-6347936D02*
X4234229Y-6357460D01*
X4234229Y-6357460D02*
X4215182Y-6366984D01*
X4215182Y-6366984D02*
X4196134Y-6366984D01*
X4196134Y-6366984D02*
X4177086Y-6357460D01*
X4177086Y-6357460D02*
X4167563Y-6347936D01*
X4167563Y-6347936D02*
X4158039Y-6328888D01*
X4158039Y-6328888D02*
X4148515Y-6290793D01*
X4148515Y-6290793D02*
X4148515Y-6243174D01*
X4148515Y-6243174D02*
X4158039Y-6205079D01*
X4158039Y-6205079D02*
X4167563Y-6186031D01*
X4167563Y-6186031D02*
X4177086Y-6176508D01*
X4177086Y-6176508D02*
X4196134Y-6166984D01*
X4348515Y-6347936D02*
X4358039Y-6357460D01*
X4358039Y-6357460D02*
X4348515Y-6366984D01*
X4348515Y-6366984D02*
X4338991Y-6357460D01*
X4338991Y-6357460D02*
X4348515Y-6347936D01*
X4348515Y-6347936D02*
X4348515Y-6366984D01*
X4481848Y-6166984D02*
X4500896Y-6166984D01*
X4500896Y-6166984D02*
X4519944Y-6176508D01*
X4519944Y-6176508D02*
X4529468Y-6186031D01*
X4529468Y-6186031D02*
X4538991Y-6205079D01*
X4538991Y-6205079D02*
X4548515Y-6243174D01*
X4548515Y-6243174D02*
X4548515Y-6290793D01*
X4548515Y-6290793D02*
X4538991Y-6328888D01*
X4538991Y-6328888D02*
X4529468Y-6347936D01*
X4529468Y-6347936D02*
X4519944Y-6357460D01*
X4519944Y-6357460D02*
X4500896Y-6366984D01*
X4500896Y-6366984D02*
X4481848Y-6366984D01*
X4481848Y-6366984D02*
X4462801Y-6357460D01*
X4462801Y-6357460D02*
X4453277Y-6347936D01*
X4453277Y-6347936D02*
X4443753Y-6328888D01*
X4443753Y-6328888D02*
X4434229Y-6290793D01*
X4434229Y-6290793D02*
X4434229Y-6243174D01*
X4434229Y-6243174D02*
X4443753Y-6205079D01*
X4443753Y-6205079D02*
X4453277Y-6186031D01*
X4453277Y-6186031D02*
X4462801Y-6176508D01*
X4462801Y-6176508D02*
X4481848Y-6166984D01*
X4615182Y-6166984D02*
X4738991Y-6166984D01*
X4738991Y-6166984D02*
X4672325Y-6243174D01*
X4672325Y-6243174D02*
X4700896Y-6243174D01*
X4700896Y-6243174D02*
X4719944Y-6252698D01*
X4719944Y-6252698D02*
X4729468Y-6262222D01*
X4729468Y-6262222D02*
X4738991Y-6281269D01*
X4738991Y-6281269D02*
X4738991Y-6328888D01*
X4738991Y-6328888D02*
X4729468Y-6347936D01*
X4729468Y-6347936D02*
X4719944Y-6357460D01*
X4719944Y-6357460D02*
X4700896Y-6366984D01*
X4700896Y-6366984D02*
X4643753Y-6366984D01*
X4643753Y-6366984D02*
X4624706Y-6357460D01*
X4624706Y-6357460D02*
X4615182Y-6347936D01*
X4919944Y-6166984D02*
X4824706Y-6166984D01*
X4824706Y-6166984D02*
X4815182Y-6262222D01*
X4815182Y-6262222D02*
X4824706Y-6252698D01*
X4824706Y-6252698D02*
X4843753Y-6243174D01*
X4843753Y-6243174D02*
X4891372Y-6243174D01*
X4891372Y-6243174D02*
X4910420Y-6252698D01*
X4910420Y-6252698D02*
X4919944Y-6262222D01*
X4919944Y-6262222D02*
X4929468Y-6281269D01*
X4929468Y-6281269D02*
X4929468Y-6328888D01*
X4929468Y-6328888D02*
X4919944Y-6347936D01*
X4919944Y-6347936D02*
X4910420Y-6357460D01*
X4910420Y-6357460D02*
X4891372Y-6366984D01*
X4891372Y-6366984D02*
X4843753Y-6366984D01*
X4843753Y-6366984D02*
X4824706Y-6357460D01*
X4824706Y-6357460D02*
X4815182Y-6347936D01*
X5100896Y-6233650D02*
X5100896Y-6366984D01*
X5053277Y-6157460D02*
X5005658Y-6300317D01*
X5005658Y-6300317D02*
X5129468Y-6300317D01*
X5196134Y-6166984D02*
X5196134Y-6205079D01*
X5272325Y-6166984D02*
X5272325Y-6205079D01*
X5567563Y-6443174D02*
X5558039Y-6433650D01*
X5558039Y-6433650D02*
X5538991Y-6405079D01*
X5538991Y-6405079D02*
X5529468Y-6386031D01*
X5529468Y-6386031D02*
X5519944Y-6357460D01*
X5519944Y-6357460D02*
X5510420Y-6309841D01*
X5510420Y-6309841D02*
X5510420Y-6271746D01*
X5510420Y-6271746D02*
X5519944Y-6224127D01*
X5519944Y-6224127D02*
X5529468Y-6195555D01*
X5529468Y-6195555D02*
X5538991Y-6176508D01*
X5538991Y-6176508D02*
X5558039Y-6147936D01*
X5558039Y-6147936D02*
X5567563Y-6138412D01*
X5634229Y-6186031D02*
X5643753Y-6176508D01*
X5643753Y-6176508D02*
X5662801Y-6166984D01*
X5662801Y-6166984D02*
X5710420Y-6166984D01*
X5710420Y-6166984D02*
X5729468Y-6176508D01*
X5729468Y-6176508D02*
X5738991Y-6186031D01*
X5738991Y-6186031D02*
X5748515Y-6205079D01*
X5748515Y-6205079D02*
X5748515Y-6224127D01*
X5748515Y-6224127D02*
X5738991Y-6252698D01*
X5738991Y-6252698D02*
X5624706Y-6366984D01*
X5624706Y-6366984D02*
X5748515Y-6366984D01*
X5986610Y-6366984D02*
X5986610Y-6166984D01*
X6072325Y-6366984D02*
X6072325Y-6262222D01*
X6072325Y-6262222D02*
X6062801Y-6243174D01*
X6062801Y-6243174D02*
X6043753Y-6233650D01*
X6043753Y-6233650D02*
X6015182Y-6233650D01*
X6015182Y-6233650D02*
X5996134Y-6243174D01*
X5996134Y-6243174D02*
X5986610Y-6252698D01*
X6196134Y-6366984D02*
X6177087Y-6357460D01*
X6177087Y-6357460D02*
X6167563Y-6347936D01*
X6167563Y-6347936D02*
X6158039Y-6328888D01*
X6158039Y-6328888D02*
X6158039Y-6271746D01*
X6158039Y-6271746D02*
X6167563Y-6252698D01*
X6167563Y-6252698D02*
X6177087Y-6243174D01*
X6177087Y-6243174D02*
X6196134Y-6233650D01*
X6196134Y-6233650D02*
X6224706Y-6233650D01*
X6224706Y-6233650D02*
X6243753Y-6243174D01*
X6243753Y-6243174D02*
X6253277Y-6252698D01*
X6253277Y-6252698D02*
X6262801Y-6271746D01*
X6262801Y-6271746D02*
X6262801Y-6328888D01*
X6262801Y-6328888D02*
X6253277Y-6347936D01*
X6253277Y-6347936D02*
X6243753Y-6357460D01*
X6243753Y-6357460D02*
X6224706Y-6366984D01*
X6224706Y-6366984D02*
X6196134Y-6366984D01*
X6377087Y-6366984D02*
X6358039Y-6357460D01*
X6358039Y-6357460D02*
X6348515Y-6338412D01*
X6348515Y-6338412D02*
X6348515Y-6166984D01*
X6529468Y-6357460D02*
X6510420Y-6366984D01*
X6510420Y-6366984D02*
X6472325Y-6366984D01*
X6472325Y-6366984D02*
X6453277Y-6357460D01*
X6453277Y-6357460D02*
X6443753Y-6338412D01*
X6443753Y-6338412D02*
X6443753Y-6262222D01*
X6443753Y-6262222D02*
X6453277Y-6243174D01*
X6453277Y-6243174D02*
X6472325Y-6233650D01*
X6472325Y-6233650D02*
X6510420Y-6233650D01*
X6510420Y-6233650D02*
X6529468Y-6243174D01*
X6529468Y-6243174D02*
X6538991Y-6262222D01*
X6538991Y-6262222D02*
X6538991Y-6281269D01*
X6538991Y-6281269D02*
X6443753Y-6300317D01*
X6615182Y-6357460D02*
X6634230Y-6366984D01*
X6634230Y-6366984D02*
X6672325Y-6366984D01*
X6672325Y-6366984D02*
X6691372Y-6357460D01*
X6691372Y-6357460D02*
X6700896Y-6338412D01*
X6700896Y-6338412D02*
X6700896Y-6328888D01*
X6700896Y-6328888D02*
X6691372Y-6309841D01*
X6691372Y-6309841D02*
X6672325Y-6300317D01*
X6672325Y-6300317D02*
X6643753Y-6300317D01*
X6643753Y-6300317D02*
X6624706Y-6290793D01*
X6624706Y-6290793D02*
X6615182Y-6271746D01*
X6615182Y-6271746D02*
X6615182Y-6262222D01*
X6615182Y-6262222D02*
X6624706Y-6243174D01*
X6624706Y-6243174D02*
X6643753Y-6233650D01*
X6643753Y-6233650D02*
X6672325Y-6233650D01*
X6672325Y-6233650D02*
X6691372Y-6243174D01*
X6767563Y-6443174D02*
X6777087Y-6433650D01*
X6777087Y-6433650D02*
X6796134Y-6405079D01*
X6796134Y-6405079D02*
X6805658Y-6386031D01*
X6805658Y-6386031D02*
X6815182Y-6357460D01*
X6815182Y-6357460D02*
X6824706Y-6309841D01*
X6824706Y-6309841D02*
X6824706Y-6271746D01*
X6824706Y-6271746D02*
X6815182Y-6224127D01*
X6815182Y-6224127D02*
X6805658Y-6195555D01*
X6805658Y-6195555D02*
X6796134Y-6176508D01*
X6796134Y-6176508D02*
X6777087Y-6147936D01*
X6777087Y-6147936D02*
X6767563Y-6138412D01*
D12*
X1977856Y-6574856D02*
X1977856Y-6504144D01*
X1907144Y-6504144D01*
X1907144Y-6574856D01*
X1977856Y-6574856D01*
D11*
X2358039Y-6630984D02*
X2243753Y-6630984D01*
X2300896Y-6630984D02*
X2300896Y-6430984D01*
X2300896Y-6430984D02*
X2281848Y-6459555D01*
X2281848Y-6459555D02*
X2262801Y-6478603D01*
X2262801Y-6478603D02*
X2243753Y-6488127D01*
X2443753Y-6611936D02*
X2453277Y-6621460D01*
X2453277Y-6621460D02*
X2443753Y-6630984D01*
X2443753Y-6630984D02*
X2434229Y-6621460D01*
X2434229Y-6621460D02*
X2443753Y-6611936D01*
X2443753Y-6611936D02*
X2443753Y-6630984D01*
X2577086Y-6430984D02*
X2596134Y-6430984D01*
X2596134Y-6430984D02*
X2615182Y-6440508D01*
X2615182Y-6440508D02*
X2624705Y-6450031D01*
X2624705Y-6450031D02*
X2634229Y-6469079D01*
X2634229Y-6469079D02*
X2643753Y-6507174D01*
X2643753Y-6507174D02*
X2643753Y-6554793D01*
X2643753Y-6554793D02*
X2634229Y-6592888D01*
X2634229Y-6592888D02*
X2624705Y-6611936D01*
X2624705Y-6611936D02*
X2615182Y-6621460D01*
X2615182Y-6621460D02*
X2596134Y-6630984D01*
X2596134Y-6630984D02*
X2577086Y-6630984D01*
X2577086Y-6630984D02*
X2558039Y-6621460D01*
X2558039Y-6621460D02*
X2548515Y-6611936D01*
X2548515Y-6611936D02*
X2538991Y-6592888D01*
X2538991Y-6592888D02*
X2529467Y-6554793D01*
X2529467Y-6554793D02*
X2529467Y-6507174D01*
X2529467Y-6507174D02*
X2538991Y-6469079D01*
X2538991Y-6469079D02*
X2548515Y-6450031D01*
X2548515Y-6450031D02*
X2558039Y-6440508D01*
X2558039Y-6440508D02*
X2577086Y-6430984D01*
X2767563Y-6430984D02*
X2786610Y-6430984D01*
X2786610Y-6430984D02*
X2805658Y-6440508D01*
X2805658Y-6440508D02*
X2815182Y-6450031D01*
X2815182Y-6450031D02*
X2824705Y-6469079D01*
X2824705Y-6469079D02*
X2834229Y-6507174D01*
X2834229Y-6507174D02*
X2834229Y-6554793D01*
X2834229Y-6554793D02*
X2824705Y-6592888D01*
X2824705Y-6592888D02*
X2815182Y-6611936D01*
X2815182Y-6611936D02*
X2805658Y-6621460D01*
X2805658Y-6621460D02*
X2786610Y-6630984D01*
X2786610Y-6630984D02*
X2767563Y-6630984D01*
X2767563Y-6630984D02*
X2748515Y-6621460D01*
X2748515Y-6621460D02*
X2738991Y-6611936D01*
X2738991Y-6611936D02*
X2729467Y-6592888D01*
X2729467Y-6592888D02*
X2719944Y-6554793D01*
X2719944Y-6554793D02*
X2719944Y-6507174D01*
X2719944Y-6507174D02*
X2729467Y-6469079D01*
X2729467Y-6469079D02*
X2738991Y-6450031D01*
X2738991Y-6450031D02*
X2748515Y-6440508D01*
X2748515Y-6440508D02*
X2767563Y-6430984D01*
X2958039Y-6430984D02*
X2977086Y-6430984D01*
X2977086Y-6430984D02*
X2996134Y-6440508D01*
X2996134Y-6440508D02*
X3005658Y-6450031D01*
X3005658Y-6450031D02*
X3015182Y-6469079D01*
X3015182Y-6469079D02*
X3024705Y-6507174D01*
X3024705Y-6507174D02*
X3024705Y-6554793D01*
X3024705Y-6554793D02*
X3015182Y-6592888D01*
X3015182Y-6592888D02*
X3005658Y-6611936D01*
X3005658Y-6611936D02*
X2996134Y-6621460D01*
X2996134Y-6621460D02*
X2977086Y-6630984D01*
X2977086Y-6630984D02*
X2958039Y-6630984D01*
X2958039Y-6630984D02*
X2938991Y-6621460D01*
X2938991Y-6621460D02*
X2929467Y-6611936D01*
X2929467Y-6611936D02*
X2919943Y-6592888D01*
X2919943Y-6592888D02*
X2910420Y-6554793D01*
X2910420Y-6554793D02*
X2910420Y-6507174D01*
X2910420Y-6507174D02*
X2919943Y-6469079D01*
X2919943Y-6469079D02*
X2929467Y-6450031D01*
X2929467Y-6450031D02*
X2938991Y-6440508D01*
X2938991Y-6440508D02*
X2958039Y-6430984D01*
X3110420Y-6630984D02*
X3110420Y-6497650D01*
X3110420Y-6516698D02*
X3119943Y-6507174D01*
X3119943Y-6507174D02*
X3138991Y-6497650D01*
X3138991Y-6497650D02*
X3167563Y-6497650D01*
X3167563Y-6497650D02*
X3186610Y-6507174D01*
X3186610Y-6507174D02*
X3196134Y-6526222D01*
X3196134Y-6526222D02*
X3196134Y-6630984D01*
X3196134Y-6526222D02*
X3205658Y-6507174D01*
X3205658Y-6507174D02*
X3224705Y-6497650D01*
X3224705Y-6497650D02*
X3253277Y-6497650D01*
X3253277Y-6497650D02*
X3272324Y-6507174D01*
X3272324Y-6507174D02*
X3281848Y-6526222D01*
X3281848Y-6526222D02*
X3281848Y-6630984D01*
X3377086Y-6630984D02*
X3377086Y-6497650D01*
X3377086Y-6516698D02*
X3386610Y-6507174D01*
X3386610Y-6507174D02*
X3405658Y-6497650D01*
X3405658Y-6497650D02*
X3434229Y-6497650D01*
X3434229Y-6497650D02*
X3453277Y-6507174D01*
X3453277Y-6507174D02*
X3462801Y-6526222D01*
X3462801Y-6526222D02*
X3462801Y-6630984D01*
X3462801Y-6526222D02*
X3472324Y-6507174D01*
X3472324Y-6507174D02*
X3491372Y-6497650D01*
X3491372Y-6497650D02*
X3519943Y-6497650D01*
X3519943Y-6497650D02*
X3538991Y-6507174D01*
X3538991Y-6507174D02*
X3548515Y-6526222D01*
X3548515Y-6526222D02*
X3548515Y-6630984D01*
X3938991Y-6421460D02*
X3767563Y-6678603D01*
X4196134Y-6430984D02*
X4215182Y-6430984D01*
X4215182Y-6430984D02*
X4234229Y-6440508D01*
X4234229Y-6440508D02*
X4243753Y-6450031D01*
X4243753Y-6450031D02*
X4253277Y-6469079D01*
X4253277Y-6469079D02*
X4262801Y-6507174D01*
X4262801Y-6507174D02*
X4262801Y-6554793D01*
X4262801Y-6554793D02*
X4253277Y-6592888D01*
X4253277Y-6592888D02*
X4243753Y-6611936D01*
X4243753Y-6611936D02*
X4234229Y-6621460D01*
X4234229Y-6621460D02*
X4215182Y-6630984D01*
X4215182Y-6630984D02*
X4196134Y-6630984D01*
X4196134Y-6630984D02*
X4177086Y-6621460D01*
X4177086Y-6621460D02*
X4167563Y-6611936D01*
X4167563Y-6611936D02*
X4158039Y-6592888D01*
X4158039Y-6592888D02*
X4148515Y-6554793D01*
X4148515Y-6554793D02*
X4148515Y-6507174D01*
X4148515Y-6507174D02*
X4158039Y-6469079D01*
X4158039Y-6469079D02*
X4167563Y-6450031D01*
X4167563Y-6450031D02*
X4177086Y-6440508D01*
X4177086Y-6440508D02*
X4196134Y-6430984D01*
X4348515Y-6611936D02*
X4358039Y-6621460D01*
X4358039Y-6621460D02*
X4348515Y-6630984D01*
X4348515Y-6630984D02*
X4338991Y-6621460D01*
X4338991Y-6621460D02*
X4348515Y-6611936D01*
X4348515Y-6611936D02*
X4348515Y-6630984D01*
X4481848Y-6430984D02*
X4500896Y-6430984D01*
X4500896Y-6430984D02*
X4519944Y-6440508D01*
X4519944Y-6440508D02*
X4529468Y-6450031D01*
X4529468Y-6450031D02*
X4538991Y-6469079D01*
X4538991Y-6469079D02*
X4548515Y-6507174D01*
X4548515Y-6507174D02*
X4548515Y-6554793D01*
X4548515Y-6554793D02*
X4538991Y-6592888D01*
X4538991Y-6592888D02*
X4529468Y-6611936D01*
X4529468Y-6611936D02*
X4519944Y-6621460D01*
X4519944Y-6621460D02*
X4500896Y-6630984D01*
X4500896Y-6630984D02*
X4481848Y-6630984D01*
X4481848Y-6630984D02*
X4462801Y-6621460D01*
X4462801Y-6621460D02*
X4453277Y-6611936D01*
X4453277Y-6611936D02*
X4443753Y-6592888D01*
X4443753Y-6592888D02*
X4434229Y-6554793D01*
X4434229Y-6554793D02*
X4434229Y-6507174D01*
X4434229Y-6507174D02*
X4443753Y-6469079D01*
X4443753Y-6469079D02*
X4453277Y-6450031D01*
X4453277Y-6450031D02*
X4462801Y-6440508D01*
X4462801Y-6440508D02*
X4481848Y-6430984D01*
X4615182Y-6430984D02*
X4738991Y-6430984D01*
X4738991Y-6430984D02*
X4672325Y-6507174D01*
X4672325Y-6507174D02*
X4700896Y-6507174D01*
X4700896Y-6507174D02*
X4719944Y-6516698D01*
X4719944Y-6516698D02*
X4729468Y-6526222D01*
X4729468Y-6526222D02*
X4738991Y-6545269D01*
X4738991Y-6545269D02*
X4738991Y-6592888D01*
X4738991Y-6592888D02*
X4729468Y-6611936D01*
X4729468Y-6611936D02*
X4719944Y-6621460D01*
X4719944Y-6621460D02*
X4700896Y-6630984D01*
X4700896Y-6630984D02*
X4643753Y-6630984D01*
X4643753Y-6630984D02*
X4624706Y-6621460D01*
X4624706Y-6621460D02*
X4615182Y-6611936D01*
X4834229Y-6630984D02*
X4872325Y-6630984D01*
X4872325Y-6630984D02*
X4891372Y-6621460D01*
X4891372Y-6621460D02*
X4900896Y-6611936D01*
X4900896Y-6611936D02*
X4919944Y-6583365D01*
X4919944Y-6583365D02*
X4929468Y-6545269D01*
X4929468Y-6545269D02*
X4929468Y-6469079D01*
X4929468Y-6469079D02*
X4919944Y-6450031D01*
X4919944Y-6450031D02*
X4910420Y-6440508D01*
X4910420Y-6440508D02*
X4891372Y-6430984D01*
X4891372Y-6430984D02*
X4853277Y-6430984D01*
X4853277Y-6430984D02*
X4834229Y-6440508D01*
X4834229Y-6440508D02*
X4824706Y-6450031D01*
X4824706Y-6450031D02*
X4815182Y-6469079D01*
X4815182Y-6469079D02*
X4815182Y-6516698D01*
X4815182Y-6516698D02*
X4824706Y-6535746D01*
X4824706Y-6535746D02*
X4834229Y-6545269D01*
X4834229Y-6545269D02*
X4853277Y-6554793D01*
X4853277Y-6554793D02*
X4891372Y-6554793D01*
X4891372Y-6554793D02*
X4910420Y-6545269D01*
X4910420Y-6545269D02*
X4919944Y-6535746D01*
X4919944Y-6535746D02*
X4929468Y-6516698D01*
X5100896Y-6497650D02*
X5100896Y-6630984D01*
X5053277Y-6421460D02*
X5005658Y-6564317D01*
X5005658Y-6564317D02*
X5129468Y-6564317D01*
X5196134Y-6430984D02*
X5196134Y-6469079D01*
X5272325Y-6430984D02*
X5272325Y-6469079D01*
X5567563Y-6707174D02*
X5558039Y-6697650D01*
X5558039Y-6697650D02*
X5538991Y-6669079D01*
X5538991Y-6669079D02*
X5529468Y-6650031D01*
X5529468Y-6650031D02*
X5519944Y-6621460D01*
X5519944Y-6621460D02*
X5510420Y-6573841D01*
X5510420Y-6573841D02*
X5510420Y-6535746D01*
X5510420Y-6535746D02*
X5519944Y-6488127D01*
X5519944Y-6488127D02*
X5529468Y-6459555D01*
X5529468Y-6459555D02*
X5538991Y-6440508D01*
X5538991Y-6440508D02*
X5558039Y-6411936D01*
X5558039Y-6411936D02*
X5567563Y-6402412D01*
X5748515Y-6630984D02*
X5634229Y-6630984D01*
X5691372Y-6630984D02*
X5691372Y-6430984D01*
X5691372Y-6430984D02*
X5672325Y-6459555D01*
X5672325Y-6459555D02*
X5653277Y-6478603D01*
X5653277Y-6478603D02*
X5634229Y-6488127D01*
X5938991Y-6630984D02*
X5824706Y-6630984D01*
X5881848Y-6630984D02*
X5881848Y-6430984D01*
X5881848Y-6430984D02*
X5862801Y-6459555D01*
X5862801Y-6459555D02*
X5843753Y-6478603D01*
X5843753Y-6478603D02*
X5824706Y-6488127D01*
X6177087Y-6630984D02*
X6177087Y-6430984D01*
X6262801Y-6630984D02*
X6262801Y-6526222D01*
X6262801Y-6526222D02*
X6253277Y-6507174D01*
X6253277Y-6507174D02*
X6234230Y-6497650D01*
X6234230Y-6497650D02*
X6205658Y-6497650D01*
X6205658Y-6497650D02*
X6186610Y-6507174D01*
X6186610Y-6507174D02*
X6177087Y-6516698D01*
X6386610Y-6630984D02*
X6367563Y-6621460D01*
X6367563Y-6621460D02*
X6358039Y-6611936D01*
X6358039Y-6611936D02*
X6348515Y-6592888D01*
X6348515Y-6592888D02*
X6348515Y-6535746D01*
X6348515Y-6535746D02*
X6358039Y-6516698D01*
X6358039Y-6516698D02*
X6367563Y-6507174D01*
X6367563Y-6507174D02*
X6386610Y-6497650D01*
X6386610Y-6497650D02*
X6415182Y-6497650D01*
X6415182Y-6497650D02*
X6434230Y-6507174D01*
X6434230Y-6507174D02*
X6443753Y-6516698D01*
X6443753Y-6516698D02*
X6453277Y-6535746D01*
X6453277Y-6535746D02*
X6453277Y-6592888D01*
X6453277Y-6592888D02*
X6443753Y-6611936D01*
X6443753Y-6611936D02*
X6434230Y-6621460D01*
X6434230Y-6621460D02*
X6415182Y-6630984D01*
X6415182Y-6630984D02*
X6386610Y-6630984D01*
X6567563Y-6630984D02*
X6548515Y-6621460D01*
X6548515Y-6621460D02*
X6538991Y-6602412D01*
X6538991Y-6602412D02*
X6538991Y-6430984D01*
X6719944Y-6621460D02*
X6700896Y-6630984D01*
X6700896Y-6630984D02*
X6662801Y-6630984D01*
X6662801Y-6630984D02*
X6643753Y-6621460D01*
X6643753Y-6621460D02*
X6634230Y-6602412D01*
X6634230Y-6602412D02*
X6634230Y-6526222D01*
X6634230Y-6526222D02*
X6643753Y-6507174D01*
X6643753Y-6507174D02*
X6662801Y-6497650D01*
X6662801Y-6497650D02*
X6700896Y-6497650D01*
X6700896Y-6497650D02*
X6719944Y-6507174D01*
X6719944Y-6507174D02*
X6729468Y-6526222D01*
X6729468Y-6526222D02*
X6729468Y-6545269D01*
X6729468Y-6545269D02*
X6634230Y-6564317D01*
X6805658Y-6621460D02*
X6824706Y-6630984D01*
X6824706Y-6630984D02*
X6862801Y-6630984D01*
X6862801Y-6630984D02*
X6881849Y-6621460D01*
X6881849Y-6621460D02*
X6891372Y-6602412D01*
X6891372Y-6602412D02*
X6891372Y-6592888D01*
X6891372Y-6592888D02*
X6881849Y-6573841D01*
X6881849Y-6573841D02*
X6862801Y-6564317D01*
X6862801Y-6564317D02*
X6834230Y-6564317D01*
X6834230Y-6564317D02*
X6815182Y-6554793D01*
X6815182Y-6554793D02*
X6805658Y-6535746D01*
X6805658Y-6535746D02*
X6805658Y-6526222D01*
X6805658Y-6526222D02*
X6815182Y-6507174D01*
X6815182Y-6507174D02*
X6834230Y-6497650D01*
X6834230Y-6497650D02*
X6862801Y-6497650D01*
X6862801Y-6497650D02*
X6881849Y-6507174D01*
X6958039Y-6707174D02*
X6967563Y-6697650D01*
X6967563Y-6697650D02*
X6986611Y-6669079D01*
X6986611Y-6669079D02*
X6996134Y-6650031D01*
X6996134Y-6650031D02*
X7005658Y-6621460D01*
X7005658Y-6621460D02*
X7015182Y-6573841D01*
X7015182Y-6573841D02*
X7015182Y-6535746D01*
X7015182Y-6535746D02*
X7005658Y-6488127D01*
X7005658Y-6488127D02*
X6996134Y-6459555D01*
X6996134Y-6459555D02*
X6986611Y-6440508D01*
X6986611Y-6440508D02*
X6967563Y-6411936D01*
X6967563Y-6411936D02*
X6958039Y-6402412D01*
M02*
