%TF.GenerationSoftware,KiCad,Pcbnew,9.0.8*%
%TF.CreationDate,2026-03-16T17:38:59-07:00*%
%TF.ProjectId,tdcs,74646373-2e6b-4696-9361-645f70636258,rev?*%
%TF.SameCoordinates,Original*%
%TF.FileFunction,Copper,L2,Bot*%
%TF.FilePolarity,Positive*%
%FSLAX46Y46*%
G04 Gerber Fmt 4.6, Leading zero omitted, Abs format (unit mm)*
G04 Created by KiCad (PCBNEW 9.0.8) date 2026-03-16 17:38:59*
%MOMM*%
%LPD*%
G01*
G04 APERTURE LIST*
G04 Aperture macros list*
%AMRoundRect*
0 Rectangle with rounded corners*
0 $1 Rounding radius*
0 $2 $3 $4 $5 $6 $7 $8 $9 X,Y pos of 4 corners*
0 Add a 4 corners polygon primitive as box body*
4,1,4,$2,$3,$4,$5,$6,$7,$8,$9,$2,$3,0*
0 Add four circle primitives for the rounded corners*
1,1,$1+$1,$2,$3*
1,1,$1+$1,$4,$5*
1,1,$1+$1,$6,$7*
1,1,$1+$1,$8,$9*
0 Add four rect primitives between the rounded corners*
20,1,$1+$1,$2,$3,$4,$5,0*
20,1,$1+$1,$4,$5,$6,$7,0*
20,1,$1+$1,$6,$7,$8,$9,0*
20,1,$1+$1,$8,$9,$2,$3,0*%
G04 Aperture macros list end*
%TA.AperFunction,ComponentPad*%
%ADD10C,1.600000*%
%TD*%
%TA.AperFunction,ComponentPad*%
%ADD11R,1.800000X1.800000*%
%TD*%
%TA.AperFunction,ComponentPad*%
%ADD12C,1.800000*%
%TD*%
%TA.AperFunction,ComponentPad*%
%ADD13R,1.700000X1.700000*%
%TD*%
%TA.AperFunction,ComponentPad*%
%ADD14C,1.700000*%
%TD*%
%TA.AperFunction,ComponentPad*%
%ADD15RoundRect,0.250000X-0.550000X-0.550000X0.550000X-0.550000X0.550000X0.550000X-0.550000X0.550000X0*%
%TD*%
%TA.AperFunction,ComponentPad*%
%ADD16R,1.050000X1.500000*%
%TD*%
%TA.AperFunction,ComponentPad*%
%ADD17O,1.050000X1.500000*%
%TD*%
G04 APERTURE END LIST*
D10*
%TO.P,V2,1*%
%TO.N,Net-(M1-+)*%
X23880000Y-38500000D03*
%TO.P,V2,2*%
%TO.N,GND*%
X31500000Y-38500000D03*
%TD*%
%TO.P,R3,1*%
%TO.N,VCC*%
X66500000Y-38500000D03*
%TO.P,R3,2*%
%TO.N,Net-(D1-A)*%
X66500000Y-30880000D03*
%TD*%
%TO.P,R2,1*%
%TO.N,Net-(R2-Pad1)*%
X43380000Y-25000000D03*
%TO.P,R2,2*%
%TO.N,Net-(R1-Pad2)*%
X51000000Y-25000000D03*
%TD*%
D11*
%TO.P,D1,1,K*%
%TO.N,GND*%
X68500000Y-25000000D03*
D12*
%TO.P,D1,2,A*%
%TO.N,Net-(D1-A)*%
X65960000Y-25000000D03*
%TD*%
D13*
%TO.P,J1,1,Pin_1*%
%TO.N,Net-(J1-Pin_1)*%
X24000000Y-45000000D03*
D14*
%TO.P,J1,2,Pin_2*%
%TO.N,Net-(J1-Pin_2)*%
X24000000Y-47540000D03*
%TD*%
D15*
%TO.P,U2,1,C1-*%
%TO.N,Net-(U2-C1-)*%
X53380000Y-40000000D03*
D10*
%TO.P,U2,2,C2+*%
%TO.N,Net-(U2-C2+)*%
X53380000Y-42540000D03*
%TO.P,U2,3,C2-*%
%TO.N,Net-(U2-C2-)*%
X53380000Y-45080000D03*
%TO.P,U2,4,-Vout*%
%TO.N,Net-(Q1-G)*%
X53380000Y-47620000D03*
%TO.P,U2,5,GND*%
%TO.N,GND*%
X61000000Y-47620000D03*
%TO.P,U2,6,Vin*%
%TO.N,VCC*%
X61000000Y-45080000D03*
%TO.P,U2,7,C1+*%
%TO.N,Net-(U2-C1+)*%
X61000000Y-42540000D03*
%TO.P,U2,8,+Vout*%
%TO.N,Net-(U2-+Vout)*%
X61000000Y-40000000D03*
%TD*%
%TO.P,C3,1*%
%TO.N,Net-(U2-C2+)*%
X48500000Y-39500000D03*
%TO.P,C3,2*%
%TO.N,Net-(U2-C2-)*%
X48500000Y-44500000D03*
%TD*%
D16*
%TO.P,Q1,1,D*%
%TO.N,Net-(M1-+)*%
X29460000Y-29500000D03*
D17*
%TO.P,Q1,2,S*%
%TO.N,Net-(Q1-S)*%
X30730000Y-29500000D03*
%TO.P,Q1,3,G*%
%TO.N,Net-(Q1-G)*%
X32000000Y-29500000D03*
%TD*%
D13*
%TO.P,R1,1,1*%
%TO.N,Net-(J1-Pin_2)*%
X54920000Y-25000000D03*
D14*
%TO.P,R1,2,2*%
%TO.N,Net-(R1-Pad2)*%
X57460000Y-25000000D03*
%TO.P,R1,3,3*%
X60000000Y-25000000D03*
%TD*%
D10*
%TO.P,R4,1*%
%TO.N,Net-(Q1-G)*%
X33000000Y-34500000D03*
%TO.P,R4,2*%
%TO.N,Net-(Q1-S)*%
X40620000Y-34500000D03*
%TD*%
D13*
%TO.P,M1,1,-*%
%TO.N,Net-(J1-Pin_1)*%
X24000000Y-25500000D03*
D14*
%TO.P,M1,2,+*%
%TO.N,Net-(M1-+)*%
X24000000Y-28040000D03*
%TD*%
D16*
%TO.P,U1,1*%
%TO.N,Net-(U2-+Vout)*%
X43460000Y-34500000D03*
D17*
%TO.P,U1,2*%
%TO.N,Net-(R2-Pad1)*%
X44730000Y-34500000D03*
%TO.P,U1,3*%
%TO.N,Net-(J1-Pin_2)*%
X46000000Y-34500000D03*
%TD*%
D10*
%TO.P,C4,1*%
%TO.N,Net-(Q1-G)*%
X34500000Y-25000000D03*
%TO.P,C4,2*%
%TO.N,GND*%
X39500000Y-25000000D03*
%TD*%
%TO.P,C2,1*%
%TO.N,Net-(U2-+Vout)*%
X65500000Y-42000000D03*
%TO.P,C2,2*%
%TO.N,GND*%
X65500000Y-47000000D03*
%TD*%
%TO.P,V1,1*%
%TO.N,Net-(J1-Pin_2)*%
X27380000Y-45000000D03*
%TO.P,V1,2*%
%TO.N,GND*%
X35000000Y-45000000D03*
%TD*%
D13*
%TO.P,B1,1,+*%
%TO.N,VCC*%
X43500000Y-44500000D03*
D14*
%TO.P,B1,2,-*%
%TO.N,Net-(B1--)*%
X43500000Y-47040000D03*
%TD*%
D13*
%TO.P,S1,1,A*%
%TO.N,GND*%
X38000000Y-44500000D03*
D14*
%TO.P,S1,2,B*%
%TO.N,Net-(B1--)*%
X38000000Y-47040000D03*
%TD*%
D10*
%TO.P,C1,1*%
%TO.N,Net-(U2-C1-)*%
X53500000Y-30500000D03*
%TO.P,C1,2*%
%TO.N,Net-(U2-C1+)*%
X58500000Y-30500000D03*
%TD*%
M02*
